%TF.GenerationSoftware,KiCad,Pcbnew,9.0.6*%
%TF.CreationDate,2026-02-05T15:03:14-05:00*%
%TF.ProjectId,health_monitor,6865616c-7468-45f6-9d6f-6e69746f722e,rev?*%
%TF.SameCoordinates,Original*%
%TF.FileFunction,Legend,Bot*%
%TF.FilePolarity,Positive*%
%FSLAX46Y46*%
G04 Gerber Fmt 4.6, Leading zero omitted, Abs format (unit mm)*
G04 Created by KiCad (PCBNEW 9.0.6) date 2026-02-05 15:03:14*
%MOMM*%
%LPD*%
G01*
G04 APERTURE LIST*
%ADD10C,0.150000*%
%ADD11C,0.508000*%
%ADD12C,0.120000*%
%ADD13C,0.152400*%
G04 APERTURE END LIST*
D10*
X130444928Y-43127167D02*
X130444928Y-43746214D01*
X130444928Y-43746214D02*
X130063976Y-43412881D01*
X130063976Y-43412881D02*
X130063976Y-43555738D01*
X130063976Y-43555738D02*
X130016357Y-43650976D01*
X130016357Y-43650976D02*
X129968738Y-43698595D01*
X129968738Y-43698595D02*
X129873500Y-43746214D01*
X129873500Y-43746214D02*
X129635405Y-43746214D01*
X129635405Y-43746214D02*
X129540167Y-43698595D01*
X129540167Y-43698595D02*
X129492548Y-43650976D01*
X129492548Y-43650976D02*
X129444928Y-43555738D01*
X129444928Y-43555738D02*
X129444928Y-43270024D01*
X129444928Y-43270024D02*
X129492548Y-43174786D01*
X129492548Y-43174786D02*
X129540167Y-43127167D01*
X132073068Y-42331021D02*
X131596878Y-42331021D01*
X132168306Y-42045306D02*
X131834973Y-43045306D01*
X131834973Y-43045306D02*
X131501640Y-42045306D01*
X131525450Y-41140293D02*
X131573069Y-41092674D01*
X131573069Y-41092674D02*
X131715926Y-41045054D01*
X131715926Y-41045054D02*
X131811164Y-41045054D01*
X131811164Y-41045054D02*
X131954021Y-41092674D01*
X131954021Y-41092674D02*
X132049259Y-41187912D01*
X132049259Y-41187912D02*
X132096878Y-41283150D01*
X132096878Y-41283150D02*
X132144497Y-41473626D01*
X132144497Y-41473626D02*
X132144497Y-41616483D01*
X132144497Y-41616483D02*
X132096878Y-41806959D01*
X132096878Y-41806959D02*
X132049259Y-41902197D01*
X132049259Y-41902197D02*
X131954021Y-41997435D01*
X131954021Y-41997435D02*
X131811164Y-42045054D01*
X131811164Y-42045054D02*
X131715926Y-42045054D01*
X131715926Y-42045054D02*
X131573069Y-41997435D01*
X131573069Y-41997435D02*
X131525450Y-41949816D01*
X130445180Y-43746214D02*
X130445180Y-43174786D01*
X130445180Y-43460500D02*
X131445180Y-43460500D01*
X131445180Y-43460500D02*
X131302323Y-43365262D01*
X131302323Y-43365262D02*
X131207085Y-43270024D01*
X131207085Y-43270024D02*
X131159466Y-43174786D01*
X146142857Y-55719580D02*
X146190476Y-55767200D01*
X146190476Y-55767200D02*
X146333333Y-55814819D01*
X146333333Y-55814819D02*
X146428571Y-55814819D01*
X146428571Y-55814819D02*
X146571428Y-55767200D01*
X146571428Y-55767200D02*
X146666666Y-55671961D01*
X146666666Y-55671961D02*
X146714285Y-55576723D01*
X146714285Y-55576723D02*
X146761904Y-55386247D01*
X146761904Y-55386247D02*
X146761904Y-55243390D01*
X146761904Y-55243390D02*
X146714285Y-55052914D01*
X146714285Y-55052914D02*
X146666666Y-54957676D01*
X146666666Y-54957676D02*
X146571428Y-54862438D01*
X146571428Y-54862438D02*
X146428571Y-54814819D01*
X146428571Y-54814819D02*
X146333333Y-54814819D01*
X146333333Y-54814819D02*
X146190476Y-54862438D01*
X146190476Y-54862438D02*
X146142857Y-54910057D01*
X145190476Y-55814819D02*
X145761904Y-55814819D01*
X145476190Y-55814819D02*
X145476190Y-54814819D01*
X145476190Y-54814819D02*
X145571428Y-54957676D01*
X145571428Y-54957676D02*
X145666666Y-55052914D01*
X145666666Y-55052914D02*
X145761904Y-55100533D01*
X144333333Y-54814819D02*
X144523809Y-54814819D01*
X144523809Y-54814819D02*
X144619047Y-54862438D01*
X144619047Y-54862438D02*
X144666666Y-54910057D01*
X144666666Y-54910057D02*
X144761904Y-55052914D01*
X144761904Y-55052914D02*
X144809523Y-55243390D01*
X144809523Y-55243390D02*
X144809523Y-55624342D01*
X144809523Y-55624342D02*
X144761904Y-55719580D01*
X144761904Y-55719580D02*
X144714285Y-55767200D01*
X144714285Y-55767200D02*
X144619047Y-55814819D01*
X144619047Y-55814819D02*
X144428571Y-55814819D01*
X144428571Y-55814819D02*
X144333333Y-55767200D01*
X144333333Y-55767200D02*
X144285714Y-55719580D01*
X144285714Y-55719580D02*
X144238095Y-55624342D01*
X144238095Y-55624342D02*
X144238095Y-55386247D01*
X144238095Y-55386247D02*
X144285714Y-55291009D01*
X144285714Y-55291009D02*
X144333333Y-55243390D01*
X144333333Y-55243390D02*
X144428571Y-55195771D01*
X144428571Y-55195771D02*
X144619047Y-55195771D01*
X144619047Y-55195771D02*
X144714285Y-55243390D01*
X144714285Y-55243390D02*
X144761904Y-55291009D01*
X144761904Y-55291009D02*
X144809523Y-55386247D01*
X140338095Y-58345180D02*
X140338095Y-57535657D01*
X140338095Y-57535657D02*
X140385714Y-57440419D01*
X140385714Y-57440419D02*
X140433333Y-57392800D01*
X140433333Y-57392800D02*
X140528571Y-57345180D01*
X140528571Y-57345180D02*
X140719047Y-57345180D01*
X140719047Y-57345180D02*
X140814285Y-57392800D01*
X140814285Y-57392800D02*
X140861904Y-57440419D01*
X140861904Y-57440419D02*
X140909523Y-57535657D01*
X140909523Y-57535657D02*
X140909523Y-58345180D01*
X141909523Y-57345180D02*
X141338095Y-57345180D01*
X141623809Y-57345180D02*
X141623809Y-58345180D01*
X141623809Y-58345180D02*
X141528571Y-58202323D01*
X141528571Y-58202323D02*
X141433333Y-58107085D01*
X141433333Y-58107085D02*
X141338095Y-58059466D01*
X143542857Y-58909580D02*
X143590476Y-58957200D01*
X143590476Y-58957200D02*
X143733333Y-59004819D01*
X143733333Y-59004819D02*
X143828571Y-59004819D01*
X143828571Y-59004819D02*
X143971428Y-58957200D01*
X143971428Y-58957200D02*
X144066666Y-58861961D01*
X144066666Y-58861961D02*
X144114285Y-58766723D01*
X144114285Y-58766723D02*
X144161904Y-58576247D01*
X144161904Y-58576247D02*
X144161904Y-58433390D01*
X144161904Y-58433390D02*
X144114285Y-58242914D01*
X144114285Y-58242914D02*
X144066666Y-58147676D01*
X144066666Y-58147676D02*
X143971428Y-58052438D01*
X143971428Y-58052438D02*
X143828571Y-58004819D01*
X143828571Y-58004819D02*
X143733333Y-58004819D01*
X143733333Y-58004819D02*
X143590476Y-58052438D01*
X143590476Y-58052438D02*
X143542857Y-58100057D01*
X142590476Y-59004819D02*
X143161904Y-59004819D01*
X142876190Y-59004819D02*
X142876190Y-58004819D01*
X142876190Y-58004819D02*
X142971428Y-58147676D01*
X142971428Y-58147676D02*
X143066666Y-58242914D01*
X143066666Y-58242914D02*
X143161904Y-58290533D01*
X141685714Y-58004819D02*
X142161904Y-58004819D01*
X142161904Y-58004819D02*
X142209523Y-58481009D01*
X142209523Y-58481009D02*
X142161904Y-58433390D01*
X142161904Y-58433390D02*
X142066666Y-58385771D01*
X142066666Y-58385771D02*
X141828571Y-58385771D01*
X141828571Y-58385771D02*
X141733333Y-58433390D01*
X141733333Y-58433390D02*
X141685714Y-58481009D01*
X141685714Y-58481009D02*
X141638095Y-58576247D01*
X141638095Y-58576247D02*
X141638095Y-58814342D01*
X141638095Y-58814342D02*
X141685714Y-58909580D01*
X141685714Y-58909580D02*
X141733333Y-58957200D01*
X141733333Y-58957200D02*
X141828571Y-59004819D01*
X141828571Y-59004819D02*
X142066666Y-59004819D01*
X142066666Y-59004819D02*
X142161904Y-58957200D01*
X142161904Y-58957200D02*
X142209523Y-58909580D01*
X141542857Y-57559580D02*
X141590476Y-57607200D01*
X141590476Y-57607200D02*
X141733333Y-57654819D01*
X141733333Y-57654819D02*
X141828571Y-57654819D01*
X141828571Y-57654819D02*
X141971428Y-57607200D01*
X141971428Y-57607200D02*
X142066666Y-57511961D01*
X142066666Y-57511961D02*
X142114285Y-57416723D01*
X142114285Y-57416723D02*
X142161904Y-57226247D01*
X142161904Y-57226247D02*
X142161904Y-57083390D01*
X142161904Y-57083390D02*
X142114285Y-56892914D01*
X142114285Y-56892914D02*
X142066666Y-56797676D01*
X142066666Y-56797676D02*
X141971428Y-56702438D01*
X141971428Y-56702438D02*
X141828571Y-56654819D01*
X141828571Y-56654819D02*
X141733333Y-56654819D01*
X141733333Y-56654819D02*
X141590476Y-56702438D01*
X141590476Y-56702438D02*
X141542857Y-56750057D01*
X140590476Y-57654819D02*
X141161904Y-57654819D01*
X140876190Y-57654819D02*
X140876190Y-56654819D01*
X140876190Y-56654819D02*
X140971428Y-56797676D01*
X140971428Y-56797676D02*
X141066666Y-56892914D01*
X141066666Y-56892914D02*
X141161904Y-56940533D01*
X140257142Y-56654819D02*
X139590476Y-56654819D01*
X139590476Y-56654819D02*
X140019047Y-57654819D01*
X141642857Y-56819580D02*
X141690476Y-56867200D01*
X141690476Y-56867200D02*
X141833333Y-56914819D01*
X141833333Y-56914819D02*
X141928571Y-56914819D01*
X141928571Y-56914819D02*
X142071428Y-56867200D01*
X142071428Y-56867200D02*
X142166666Y-56771961D01*
X142166666Y-56771961D02*
X142214285Y-56676723D01*
X142214285Y-56676723D02*
X142261904Y-56486247D01*
X142261904Y-56486247D02*
X142261904Y-56343390D01*
X142261904Y-56343390D02*
X142214285Y-56152914D01*
X142214285Y-56152914D02*
X142166666Y-56057676D01*
X142166666Y-56057676D02*
X142071428Y-55962438D01*
X142071428Y-55962438D02*
X141928571Y-55914819D01*
X141928571Y-55914819D02*
X141833333Y-55914819D01*
X141833333Y-55914819D02*
X141690476Y-55962438D01*
X141690476Y-55962438D02*
X141642857Y-56010057D01*
X140690476Y-56914819D02*
X141261904Y-56914819D01*
X140976190Y-56914819D02*
X140976190Y-55914819D01*
X140976190Y-55914819D02*
X141071428Y-56057676D01*
X141071428Y-56057676D02*
X141166666Y-56152914D01*
X141166666Y-56152914D02*
X141261904Y-56200533D01*
X140119047Y-56343390D02*
X140214285Y-56295771D01*
X140214285Y-56295771D02*
X140261904Y-56248152D01*
X140261904Y-56248152D02*
X140309523Y-56152914D01*
X140309523Y-56152914D02*
X140309523Y-56105295D01*
X140309523Y-56105295D02*
X140261904Y-56010057D01*
X140261904Y-56010057D02*
X140214285Y-55962438D01*
X140214285Y-55962438D02*
X140119047Y-55914819D01*
X140119047Y-55914819D02*
X139928571Y-55914819D01*
X139928571Y-55914819D02*
X139833333Y-55962438D01*
X139833333Y-55962438D02*
X139785714Y-56010057D01*
X139785714Y-56010057D02*
X139738095Y-56105295D01*
X139738095Y-56105295D02*
X139738095Y-56152914D01*
X139738095Y-56152914D02*
X139785714Y-56248152D01*
X139785714Y-56248152D02*
X139833333Y-56295771D01*
X139833333Y-56295771D02*
X139928571Y-56343390D01*
X139928571Y-56343390D02*
X140119047Y-56343390D01*
X140119047Y-56343390D02*
X140214285Y-56391009D01*
X140214285Y-56391009D02*
X140261904Y-56438628D01*
X140261904Y-56438628D02*
X140309523Y-56533866D01*
X140309523Y-56533866D02*
X140309523Y-56724342D01*
X140309523Y-56724342D02*
X140261904Y-56819580D01*
X140261904Y-56819580D02*
X140214285Y-56867200D01*
X140214285Y-56867200D02*
X140119047Y-56914819D01*
X140119047Y-56914819D02*
X139928571Y-56914819D01*
X139928571Y-56914819D02*
X139833333Y-56867200D01*
X139833333Y-56867200D02*
X139785714Y-56819580D01*
X139785714Y-56819580D02*
X139738095Y-56724342D01*
X139738095Y-56724342D02*
X139738095Y-56533866D01*
X139738095Y-56533866D02*
X139785714Y-56438628D01*
X139785714Y-56438628D02*
X139833333Y-56391009D01*
X139833333Y-56391009D02*
X139928571Y-56343390D01*
D11*
%TO.C,J1*%
X122063399Y-56116600D02*
G75*
G02*
X121301399Y-56116600I-381000J0D01*
G01*
X121301399Y-56116600D02*
G75*
G02*
X122063399Y-56116600I381000J0D01*
G01*
D12*
%TO.C,C16*%
X145392164Y-53840000D02*
X145607836Y-53840000D01*
X145392164Y-54560000D02*
X145607836Y-54560000D01*
D13*
%TO.C,U1*%
X139944300Y-56745900D02*
X142255700Y-56745900D01*
X142255700Y-58854100D02*
X139944300Y-58854100D01*
%TO.C,SENSOR1*%
X143472700Y-57956202D02*
X143472700Y-57043798D01*
X144450666Y-56077600D02*
X144859332Y-56077600D01*
X144859332Y-58922400D02*
X144450666Y-58922400D01*
X145760666Y-56077600D02*
X146239334Y-56077600D01*
X146239334Y-58922400D02*
X145760666Y-58922400D01*
X147140668Y-56077600D02*
X147549334Y-56077600D01*
X147549334Y-58922400D02*
X147140668Y-58922400D01*
X148527300Y-57043798D02*
X148527300Y-57956202D01*
X149636600Y-56600000D02*
G75*
G02*
X149382600Y-56600000I-127000J0D01*
G01*
X149382600Y-56600000D02*
G75*
G02*
X149636600Y-56600000I127000J0D01*
G01*
D12*
%TO.C,C18*%
X140892164Y-54940000D02*
X141107836Y-54940000D01*
X140892164Y-55660000D02*
X141107836Y-55660000D01*
%TD*%
M02*
