%TF.GenerationSoftware,KiCad,Pcbnew,9.0.6*%
%TF.CreationDate,2026-02-05T15:03:14-05:00*%
%TF.ProjectId,health_monitor,6865616c-7468-45f6-9d6f-6e69746f722e,rev?*%
%TF.SameCoordinates,Original*%
%TF.FileFunction,Soldermask,Top*%
%TF.FilePolarity,Negative*%
%FSLAX46Y46*%
G04 Gerber Fmt 4.6, Leading zero omitted, Abs format (unit mm)*
G04 Created by KiCad (PCBNEW 9.0.6) date 2026-02-05 15:03:14*
%MOMM*%
%LPD*%
G01*
G04 APERTURE LIST*
G04 Aperture macros list*
%AMRoundRect*
0 Rectangle with rounded corners*
0 $1 Rounding radius*
0 $2 $3 $4 $5 $6 $7 $8 $9 X,Y pos of 4 corners*
0 Add a 4 corners polygon primitive as box body*
4,1,4,$2,$3,$4,$5,$6,$7,$8,$9,$2,$3,0*
0 Add four circle primitives for the rounded corners*
1,1,$1+$1,$2,$3*
1,1,$1+$1,$4,$5*
1,1,$1+$1,$6,$7*
1,1,$1+$1,$8,$9*
0 Add four rect primitives between the rounded corners*
20,1,$1+$1,$2,$3,$4,$5,0*
20,1,$1+$1,$4,$5,$6,$7,0*
20,1,$1+$1,$6,$7,$8,$9,0*
20,1,$1+$1,$8,$9,$2,$3,0*%
G04 Aperture macros list end*
%ADD10O,1.955800X0.939800*%
%ADD11O,2.159000X0.939800*%
%ADD12R,0.812800X0.279400*%
%ADD13R,0.812800X0.330200*%
%ADD14RoundRect,0.100000X0.100000X-0.130000X0.100000X0.130000X-0.100000X0.130000X-0.100000X-0.130000X0*%
%ADD15RoundRect,0.075000X-0.075000X0.125000X-0.075000X-0.125000X0.075000X-0.125000X0.075000X0.125000X0*%
%ADD16RoundRect,0.150000X-0.400000X0.150000X-0.400000X-0.150000X0.400000X-0.150000X0.400000X0.150000X0*%
%ADD17RoundRect,0.100000X-0.130000X-0.100000X0.130000X-0.100000X0.130000X0.100000X-0.130000X0.100000X0*%
%ADD18RoundRect,0.100000X0.130000X0.100000X-0.130000X0.100000X-0.130000X-0.100000X0.130000X-0.100000X0*%
%ADD19RoundRect,0.250000X-0.375000X-0.850000X0.375000X-0.850000X0.375000X0.850000X-0.375000X0.850000X0*%
%ADD20RoundRect,0.250000X0.850000X-0.375000X0.850000X0.375000X-0.850000X0.375000X-0.850000X-0.375000X0*%
%ADD21R,0.330200X0.381000*%
%ADD22R,0.381000X0.330200*%
%ADD23RoundRect,0.140000X-0.140000X-0.170000X0.140000X-0.170000X0.140000X0.170000X-0.140000X0.170000X0*%
%ADD24RoundRect,0.140000X0.140000X0.170000X-0.140000X0.170000X-0.140000X-0.170000X0.140000X-0.170000X0*%
%ADD25C,0.279400*%
%ADD26RoundRect,0.075000X0.125000X0.075000X-0.125000X0.075000X-0.125000X-0.075000X0.125000X-0.075000X0*%
%ADD27RoundRect,0.075000X0.075000X-0.125000X0.075000X0.125000X-0.075000X0.125000X-0.075000X-0.125000X0*%
%ADD28R,1.700000X1.700000*%
%ADD29C,1.700000*%
%ADD30RoundRect,0.147500X-0.147500X-0.172500X0.147500X-0.172500X0.147500X0.172500X-0.147500X0.172500X0*%
%ADD31RoundRect,0.100000X-0.100000X0.130000X-0.100000X-0.130000X0.100000X-0.130000X0.100000X0.130000X0*%
%ADD32RoundRect,0.140000X-0.170000X0.140000X-0.170000X-0.140000X0.170000X-0.140000X0.170000X0.140000X0*%
%ADD33RoundRect,0.160000X-0.197500X-0.160000X0.197500X-0.160000X0.197500X0.160000X-0.197500X0.160000X0*%
%ADD34RoundRect,0.160000X-0.160000X0.197500X-0.160000X-0.197500X0.160000X-0.197500X0.160000X0.197500X0*%
%ADD35RoundRect,0.160000X0.197500X0.160000X-0.197500X0.160000X-0.197500X-0.160000X0.197500X-0.160000X0*%
%ADD36RoundRect,0.075000X-0.125000X-0.075000X0.125000X-0.075000X0.125000X0.075000X-0.125000X0.075000X0*%
%ADD37C,0.499999*%
%ADD38O,0.240000X0.599999*%
%ADD39O,0.599999X0.240000*%
%ADD40R,2.700000X2.700000*%
%ADD41RoundRect,0.250000X-0.350000X-0.650000X0.350000X-0.650000X0.350000X0.650000X-0.350000X0.650000X0*%
%ADD42R,0.812800X0.254000*%
%ADD43R,0.254000X0.812800*%
%ADD44R,5.257800X5.257800*%
%ADD45RoundRect,0.160000X0.160000X-0.197500X0.160000X0.197500X-0.160000X0.197500X-0.160000X-0.197500X0*%
%ADD46RoundRect,0.200000X-0.200000X0.250000X-0.200000X-0.250000X0.200000X-0.250000X0.200000X0.250000X0*%
%ADD47R,0.711200X0.279400*%
%ADD48R,0.990600X1.701800*%
%ADD49RoundRect,0.147500X-0.172500X0.147500X-0.172500X-0.147500X0.172500X-0.147500X0.172500X0.147500X0*%
G04 APERTURE END LIST*
D10*
%TO.C,J1*%
X121867400Y-54750001D03*
X121867400Y-45849999D03*
D11*
X125067399Y-54749953D03*
X125067399Y-45850047D03*
D12*
X121682399Y-53350000D03*
X121682399Y-51550315D03*
X121682399Y-51050189D03*
X121682399Y-50550063D03*
X121682399Y-50049937D03*
X121682399Y-49549811D03*
X121682399Y-49049685D03*
X121682399Y-47250000D03*
X122932399Y-47299993D03*
X122932399Y-48799685D03*
X122932399Y-49299811D03*
X122932399Y-49799937D03*
X122932399Y-50800063D03*
X122932399Y-51300189D03*
X122932399Y-51800315D03*
X122932399Y-53300007D03*
D13*
X121682407Y-53850001D03*
X121682407Y-46749999D03*
%TD*%
D14*
%TO.C,R8*%
X127700000Y-39320000D03*
X127700000Y-38680000D03*
%TD*%
D15*
%TO.C,C11*%
X142000000Y-65450000D03*
X142000000Y-65950000D03*
%TD*%
D16*
%TO.C,NX2012SA-1*%
X143500000Y-64000000D03*
X143500000Y-65400000D03*
%TD*%
D17*
%TO.C,C27*%
X135460000Y-39700000D03*
X136100000Y-39700000D03*
%TD*%
D14*
%TO.C,R7*%
X123100000Y-39820000D03*
X123100000Y-39180000D03*
%TD*%
D18*
%TO.C,C29*%
X143920000Y-44900000D03*
X143280000Y-44900000D03*
%TD*%
D19*
%TO.C,L2*%
X140625000Y-42700000D03*
X142775000Y-42700000D03*
%TD*%
D20*
%TO.C,L1*%
X138200000Y-40375000D03*
X138200000Y-38225000D03*
%TD*%
D18*
%TO.C,R12*%
X139920000Y-51200000D03*
X139280000Y-51200000D03*
%TD*%
D21*
%TO.C,U2*%
X134849999Y-57763600D03*
X135350000Y-57763600D03*
X135850000Y-57763600D03*
X136350001Y-57763600D03*
D22*
X136514400Y-57150000D03*
X136514400Y-56650000D03*
D21*
X136350001Y-56036400D03*
X135850000Y-56036400D03*
X135350000Y-56036400D03*
X134849999Y-56036400D03*
D22*
X134685600Y-56650000D03*
X134685600Y-57150000D03*
%TD*%
D14*
%TO.C,C30*%
X140700000Y-52620000D03*
X140700000Y-51980000D03*
%TD*%
D15*
%TO.C,C20*%
X133600000Y-56750000D03*
X133600000Y-57250000D03*
%TD*%
D23*
%TO.C,C32*%
X144620000Y-68400000D03*
X145580000Y-68400000D03*
%TD*%
D24*
%TO.C,C6*%
X141780000Y-70700000D03*
X140820000Y-70700000D03*
%TD*%
D25*
%TO.C,U5*%
X130900000Y-42500126D03*
X130399874Y-42500126D03*
X129899748Y-42500126D03*
X130900000Y-42000000D03*
X130399874Y-42000000D03*
X129899748Y-42000000D03*
X130900000Y-41499874D03*
X130399874Y-41499874D03*
X129899748Y-41499874D03*
%TD*%
D26*
%TO.C,C9*%
X132750000Y-59400000D03*
X132250000Y-59400000D03*
%TD*%
D27*
%TO.C,C5*%
X130500000Y-65550000D03*
X130500000Y-65050000D03*
%TD*%
D14*
%TO.C,R10*%
X122200000Y-39320000D03*
X122200000Y-38680000D03*
%TD*%
D27*
%TO.C,C13*%
X139800000Y-72950000D03*
X139800000Y-72450000D03*
%TD*%
D15*
%TO.C,C10*%
X130500000Y-66450000D03*
X130500000Y-66950000D03*
%TD*%
D17*
%TO.C,C31*%
X136480000Y-51800000D03*
X137120000Y-51800000D03*
%TD*%
D28*
%TO.C,J3*%
X122300000Y-58660000D03*
D29*
X122300000Y-61200000D03*
X122300000Y-63740000D03*
X122300000Y-66280000D03*
X122300000Y-68820000D03*
%TD*%
D30*
%TO.C,L3*%
X148615000Y-68400000D03*
X149585000Y-68400000D03*
%TD*%
D31*
%TO.C,R6*%
X138400000Y-51280000D03*
X138400000Y-51920000D03*
%TD*%
D26*
%TO.C,C3*%
X132750000Y-58500000D03*
X132250000Y-58500000D03*
%TD*%
D14*
%TO.C,R9*%
X122200000Y-40920000D03*
X122200000Y-40280000D03*
%TD*%
D32*
%TO.C,C4*%
X129100000Y-64220000D03*
X129100000Y-65180000D03*
%TD*%
D33*
%TO.C,R1*%
X128102500Y-66500000D03*
X129297500Y-66500000D03*
%TD*%
D34*
%TO.C,R5*%
X141600000Y-44902500D03*
X141600000Y-46097500D03*
%TD*%
D26*
%TO.C,C21*%
X134850000Y-55000000D03*
X134350000Y-55000000D03*
%TD*%
D35*
%TO.C,R3*%
X135697500Y-45200000D03*
X134502500Y-45200000D03*
%TD*%
D36*
%TO.C,C19*%
X135900000Y-54600000D03*
X136400000Y-54600000D03*
%TD*%
D37*
%TO.C,U4*%
X138000000Y-47100000D03*
D38*
X136750000Y-50099999D03*
X137249999Y-50099999D03*
X137750000Y-50099999D03*
X138250000Y-50099999D03*
X138750001Y-50099999D03*
X139250000Y-50099999D03*
D39*
X139899999Y-49450000D03*
X139899999Y-48950001D03*
X139899999Y-48450000D03*
X139899999Y-47950000D03*
X139899999Y-47449999D03*
X139899999Y-46950000D03*
D38*
X139250000Y-46300001D03*
X138750001Y-46300001D03*
X138250000Y-46300001D03*
X137750000Y-46300001D03*
X137249999Y-46300001D03*
X136750000Y-46300001D03*
D39*
X136100001Y-46950000D03*
X136100001Y-47449999D03*
X136100001Y-47950000D03*
X136100001Y-48450000D03*
X136100001Y-48950001D03*
X136100001Y-49450000D03*
D40*
X138000000Y-48200000D03*
D37*
X136900000Y-48200000D03*
X138000000Y-49300000D03*
X138000000Y-48200000D03*
X139100000Y-48200000D03*
%TD*%
D36*
%TO.C,C2*%
X139050000Y-59300000D03*
X139550000Y-59300000D03*
%TD*%
D41*
%TO.C,AE1*%
X151950000Y-68400000D03*
X154850000Y-68400000D03*
%TD*%
D14*
%TO.C,C24*%
X135500000Y-51820000D03*
X135500000Y-51180000D03*
%TD*%
D36*
%TO.C,C8*%
X139150000Y-68700000D03*
X139650000Y-68700000D03*
%TD*%
D17*
%TO.C,C22*%
X128079874Y-42400126D03*
X128719874Y-42400126D03*
%TD*%
D42*
%TO.C,MCU1*%
X139054400Y-66850693D03*
X139054400Y-66350567D03*
X139054400Y-65850441D03*
X139054400Y-65350315D03*
X139054400Y-64850189D03*
X139054400Y-64350063D03*
X139054400Y-63849937D03*
X139054400Y-63349811D03*
X139054400Y-62849685D03*
X139054400Y-62349559D03*
X139054400Y-61849433D03*
X139054400Y-61349307D03*
D43*
X138350693Y-60645600D03*
X137850567Y-60645600D03*
X137350441Y-60645600D03*
X136850315Y-60645600D03*
X136350189Y-60645600D03*
X135850063Y-60645600D03*
X135349937Y-60645600D03*
X134849811Y-60645600D03*
X134349685Y-60645600D03*
X133849559Y-60645600D03*
X133349433Y-60645600D03*
X132849307Y-60645600D03*
D42*
X132145600Y-61349307D03*
X132145600Y-61849433D03*
X132145600Y-62349559D03*
X132145600Y-62849685D03*
X132145600Y-63349811D03*
X132145600Y-63849937D03*
X132145600Y-64350063D03*
X132145600Y-64850189D03*
X132145600Y-65350315D03*
X132145600Y-65850441D03*
X132145600Y-66350567D03*
X132145600Y-66850693D03*
D43*
X132849307Y-67554400D03*
X133349433Y-67554400D03*
X133849559Y-67554400D03*
X134349685Y-67554400D03*
X134849811Y-67554400D03*
X135349937Y-67554400D03*
X135850063Y-67554400D03*
X136350189Y-67554400D03*
X136850315Y-67554400D03*
X137350441Y-67554400D03*
X137850567Y-67554400D03*
X138350693Y-67554400D03*
D44*
X135600000Y-64100000D03*
%TD*%
D18*
%TO.C,R11*%
X132719874Y-43000000D03*
X132079874Y-43000000D03*
%TD*%
D27*
%TO.C,C14*%
X136300000Y-72250000D03*
X136300000Y-71750000D03*
%TD*%
D26*
%TO.C,C7*%
X136650000Y-69800000D03*
X136150000Y-69800000D03*
%TD*%
%TO.C,C28*%
X143850000Y-45800000D03*
X143350000Y-45800000D03*
%TD*%
D28*
%TO.C,J2*%
X130125000Y-37800000D03*
D29*
X132665000Y-37800000D03*
%TD*%
D18*
%TO.C,R13*%
X132719874Y-42200126D03*
X132079874Y-42200126D03*
%TD*%
D33*
%TO.C,R4*%
X142802500Y-46700000D03*
X143997500Y-46700000D03*
%TD*%
D45*
%TO.C,R2*%
X134500000Y-43897500D03*
X134500000Y-42702500D03*
%TD*%
D46*
%TO.C,CX2016FB-1*%
X137450000Y-71900000D03*
X137450000Y-73300000D03*
X138550000Y-73300000D03*
X138550000Y-71900000D03*
%TD*%
D15*
%TO.C,C26*%
X135500000Y-42950000D03*
X135500000Y-43450000D03*
%TD*%
D47*
%TO.C,U3*%
X124400000Y-38000000D03*
X124400000Y-38500126D03*
X124400000Y-39000252D03*
X124400000Y-39500378D03*
X126406600Y-39500378D03*
X126406600Y-39000252D03*
X126406600Y-38500126D03*
X126406600Y-38000000D03*
D48*
X125403300Y-38750189D03*
%TD*%
D26*
%TO.C,C1*%
X135750000Y-68700000D03*
X135250000Y-68700000D03*
%TD*%
D18*
%TO.C,C25*%
X138420000Y-43700000D03*
X137780000Y-43700000D03*
%TD*%
%TO.C,C23*%
X129820000Y-40500000D03*
X129180000Y-40500000D03*
%TD*%
D15*
%TO.C,C12*%
X142000000Y-63650000D03*
X142000000Y-64150000D03*
%TD*%
D49*
%TO.C,L4*%
X147100000Y-68415000D03*
X147100000Y-69385000D03*
%TD*%
M02*
