%TF.GenerationSoftware,KiCad,Pcbnew,9.0.6*%
%TF.CreationDate,2026-02-05T15:03:13-05:00*%
%TF.ProjectId,health_monitor,6865616c-7468-45f6-9d6f-6e69746f722e,rev?*%
%TF.SameCoordinates,Original*%
%TF.FileFunction,Copper,L3,Inr*%
%TF.FilePolarity,Positive*%
%FSLAX46Y46*%
G04 Gerber Fmt 4.6, Leading zero omitted, Abs format (unit mm)*
G04 Created by KiCad (PCBNEW 9.0.6) date 2026-02-05 15:03:13*
%MOMM*%
%LPD*%
G01*
G04 APERTURE LIST*
%TA.AperFunction,ComponentPad*%
%ADD10R,1.700000X1.700000*%
%TD*%
%TA.AperFunction,ComponentPad*%
%ADD11C,1.700000*%
%TD*%
%TA.AperFunction,ComponentPad*%
%ADD12C,0.499999*%
%TD*%
%TA.AperFunction,ViaPad*%
%ADD13C,0.600000*%
%TD*%
%TA.AperFunction,ViaPad*%
%ADD14C,0.450000*%
%TD*%
%TA.AperFunction,ViaPad*%
%ADD15C,0.400000*%
%TD*%
%TA.AperFunction,ViaPad*%
%ADD16C,0.300000*%
%TD*%
%TA.AperFunction,ViaPad*%
%ADD17C,0.500000*%
%TD*%
%TA.AperFunction,ViaPad*%
%ADD18C,0.250000*%
%TD*%
%TA.AperFunction,Conductor*%
%ADD19C,0.200000*%
%TD*%
G04 APERTURE END LIST*
D10*
%TO.N,/CC2674R10/JTAG_{TCKC}*%
%TO.C,J3*%
X122300000Y-58660000D03*
D11*
%TO.N,/CC2674R10/JTAG_{TMSC}*%
X122300000Y-61200000D03*
%TO.N,/MCU_DIO16*%
X122300000Y-63740000D03*
%TO.N,/MCU_DIO17*%
X122300000Y-66280000D03*
%TO.N,/CC2674R10/RESET*%
X122300000Y-68820000D03*
%TD*%
D12*
%TO.N,GNDREF*%
%TO.C,U4*%
X138000000Y-47100000D03*
X136900000Y-48200000D03*
X138000000Y-49300000D03*
X138000000Y-48200000D03*
X139100000Y-48200000D03*
%TD*%
D10*
%TO.N,/Power Management ICs/BAT+*%
%TO.C,J2*%
X130125000Y-37800000D03*
D11*
%TO.N,GNDREF*%
X132665000Y-37800000D03*
%TD*%
D13*
%TO.N,GNDREF*%
X143000000Y-70700000D03*
X142800000Y-56400000D03*
D14*
X140700000Y-51200000D03*
X139200000Y-41900000D03*
D13*
X128900000Y-39200000D03*
X144000000Y-54800000D03*
X139700000Y-55200000D03*
X132800000Y-54900000D03*
X122900000Y-52600000D03*
X141700000Y-56500000D03*
X137400000Y-54900000D03*
X135600000Y-50100000D03*
D14*
X139000000Y-43300000D03*
D13*
X139800000Y-60500000D03*
X143100000Y-57900000D03*
X121500000Y-48200000D03*
D14*
X136600000Y-43100000D03*
D15*
X141400000Y-66000000D03*
D14*
X136600000Y-40700000D03*
X136400000Y-45200000D03*
D13*
X144400000Y-41500000D03*
X132700000Y-68700000D03*
X132800000Y-56200000D03*
D14*
X136600000Y-40100000D03*
X142000000Y-44500000D03*
D15*
X142000000Y-63000000D03*
D13*
X145300000Y-66700000D03*
X129500000Y-63200000D03*
X133800000Y-55600000D03*
X128200000Y-71200000D03*
D14*
X143200000Y-50900000D03*
D13*
X129500000Y-58700000D03*
X137600000Y-55900000D03*
D14*
X140600000Y-47200000D03*
D13*
X142100000Y-54800000D03*
X139600000Y-56500000D03*
X122200000Y-42100000D03*
X143000000Y-40700000D03*
X142700000Y-66700000D03*
X140200000Y-38200000D03*
D14*
X135700000Y-44400000D03*
X136600000Y-42000000D03*
D13*
X127900000Y-40400000D03*
D14*
X136600000Y-44300000D03*
D13*
X126900000Y-42300000D03*
D14*
X138600000Y-41700000D03*
X136100000Y-46200000D03*
D13*
X138600000Y-71000000D03*
X122000000Y-74200000D03*
X141800000Y-69300000D03*
X140200000Y-40500000D03*
D16*
X130400000Y-42000000D03*
D14*
X140000000Y-44500000D03*
D13*
X131800000Y-67900000D03*
D14*
X138900000Y-45600000D03*
D13*
X132200000Y-74200000D03*
X134300000Y-51800000D03*
X130400000Y-67600000D03*
X121500000Y-52300000D03*
X122900000Y-48100000D03*
X139700000Y-58500000D03*
X140800000Y-68100000D03*
X132800000Y-43900000D03*
D14*
X139300000Y-45100000D03*
X139200000Y-42600000D03*
X141400000Y-49100000D03*
D13*
X123400000Y-41000000D03*
X130500000Y-64100000D03*
X134500000Y-49200000D03*
X138100000Y-70400000D03*
X143500000Y-63000000D03*
D14*
X142900000Y-44500000D03*
D13*
X144400000Y-42800000D03*
X126300000Y-74200000D03*
X141300000Y-63500000D03*
X144800000Y-74000000D03*
X144100000Y-66700000D03*
X124700000Y-42700000D03*
X140600000Y-66100000D03*
D17*
X125403300Y-38750189D03*
D13*
X132100000Y-41000000D03*
X131300000Y-59400000D03*
X131000000Y-57900000D03*
D14*
X143100000Y-48000000D03*
D13*
X128000000Y-44200000D03*
D14*
X136600000Y-39600000D03*
D13*
X136300000Y-53100000D03*
X139400000Y-71500000D03*
D14*
X137900000Y-41700000D03*
X141100000Y-44500000D03*
D13*
X143400000Y-61200000D03*
X122000000Y-71000000D03*
%TO.N,Net-(MCU1A-VDDR)*%
X139610000Y-69490000D03*
X135500000Y-71200000D03*
X140160000Y-70040000D03*
D14*
%TO.N,/V_{LED}*%
X134400000Y-41400000D03*
X135100000Y-40800000D03*
X134400000Y-42000000D03*
X135100000Y-42000000D03*
X135100000Y-41400000D03*
X134400000Y-40800000D03*
%TO.N,/V_{A}*%
X141500000Y-53000000D03*
X141600000Y-52000000D03*
X143100000Y-52100000D03*
X142400000Y-52600000D03*
X143100000Y-53000000D03*
D13*
%TO.N,/V_{2.0}*%
X127900000Y-64800000D03*
X126400000Y-59400000D03*
X127900000Y-65600000D03*
X134200000Y-69700000D03*
X127600000Y-59400000D03*
X126400000Y-58200000D03*
X127600000Y-58200000D03*
X135100000Y-69700000D03*
X127000000Y-58800000D03*
D16*
%TO.N,/Power Management ICs/V_{BAT}*%
X137780000Y-43300000D03*
X133600000Y-44700000D03*
X137780000Y-42799997D03*
X133600000Y-45300000D03*
X133600000Y-44000000D03*
X137780000Y-42299994D03*
D18*
%TO.N,/MCU_DIO7*%
X140700000Y-59400000D03*
D16*
%TO.N,/MCU_DIO18*%
X131200000Y-62900000D03*
X130400000Y-42500000D03*
D18*
%TO.N,/MCU_DIO3*%
X140700000Y-58000000D03*
%TO.N,/MCU_DIO5*%
X141500000Y-59400000D03*
D16*
%TO.N,/MCU_DIO19*%
X130900000Y-63400000D03*
X129900000Y-42500000D03*
D18*
%TO.N,/MCU_DIO4*%
X141900000Y-59400000D03*
%TO.N,/MCU_DIO6*%
X141100000Y-59400000D03*
%TO.N,/LED_CATHODE0*%
X140300000Y-57200000D03*
X148000000Y-56600000D03*
%TO.N,/LED_CATHODE1*%
X145300000Y-58400000D03*
X140300000Y-57600000D03*
%TO.N,/LED_CATHODE2*%
X148000001Y-58400001D03*
X140300000Y-58000000D03*
%TD*%
D19*
%TO.N,/MCU_DIO18*%
X130400000Y-62100000D02*
X131200000Y-62900000D01*
X130400000Y-42500000D02*
X130400000Y-62100000D01*
%TO.N,/MCU_DIO19*%
X128600000Y-61700000D02*
X129400000Y-62500000D01*
X129900000Y-42500000D02*
X129900000Y-57100000D01*
X129900000Y-57100000D02*
X128600000Y-58400000D01*
X129400000Y-62500000D02*
X130000000Y-62500000D01*
X130000000Y-62500000D02*
X130900000Y-63400000D01*
X128600000Y-58400000D02*
X128600000Y-61700000D01*
%TO.N,/LED_CATHODE0*%
X140300000Y-57200000D02*
X140300000Y-56500000D01*
X147000000Y-55600000D02*
X148000000Y-56600000D01*
X141200000Y-55600000D02*
X147000000Y-55600000D01*
X140300000Y-56500000D02*
X141200000Y-55600000D01*
%TO.N,/LED_CATHODE1*%
X143500000Y-59800000D02*
X145100000Y-59800000D01*
X141300000Y-57600000D02*
X143500000Y-59800000D01*
X145100000Y-59800000D02*
X145300000Y-59600000D01*
X145300000Y-59600000D02*
X145300000Y-58400000D01*
X140300000Y-57600000D02*
X141300000Y-57600000D01*
%TO.N,/LED_CATHODE2*%
X140900000Y-60200000D02*
X146200002Y-60200000D01*
X140300000Y-59600000D02*
X140900000Y-60200000D01*
X146200002Y-60200000D02*
X148000001Y-58400001D01*
X140300000Y-58000000D02*
X140300000Y-59600000D01*
%TD*%
%TA.AperFunction,Conductor*%
%TO.N,GNDREF*%
G36*
X130045445Y-57476269D02*
G01*
X130088710Y-57519534D01*
X130099500Y-57564479D01*
X130099500Y-62100500D01*
X130080593Y-62158691D01*
X130031093Y-62194655D01*
X130000500Y-62199500D01*
X129565479Y-62199500D01*
X129507288Y-62180593D01*
X129495475Y-62170504D01*
X128929496Y-61604525D01*
X128901719Y-61550008D01*
X128900500Y-61534521D01*
X128900500Y-58565479D01*
X128919407Y-58507288D01*
X128929496Y-58495475D01*
X129930496Y-57494475D01*
X129985013Y-57466698D01*
X130045445Y-57476269D01*
G37*
%TD.AperFunction*%
%TA.AperFunction,Conductor*%
G36*
X128975857Y-37028383D02*
G01*
X129033975Y-37047496D01*
X129069763Y-37097124D01*
X129074500Y-37127381D01*
X129074500Y-38669746D01*
X129074501Y-38669758D01*
X129086132Y-38728227D01*
X129086133Y-38728231D01*
X129130448Y-38794552D01*
X129196769Y-38838867D01*
X129241231Y-38847711D01*
X129255241Y-38850498D01*
X129255246Y-38850498D01*
X129255252Y-38850500D01*
X129255253Y-38850500D01*
X130994747Y-38850500D01*
X130994748Y-38850500D01*
X131053231Y-38838867D01*
X131119552Y-38794552D01*
X131163867Y-38728231D01*
X131175500Y-38669748D01*
X131175500Y-37135563D01*
X131194407Y-37077372D01*
X131243907Y-37041408D01*
X131274844Y-37036565D01*
X135050000Y-37050000D01*
X148559099Y-37098075D01*
X148617221Y-37117189D01*
X148628874Y-37127195D01*
X149071128Y-37571025D01*
X149098809Y-37625591D01*
X149100000Y-37640904D01*
X149100000Y-74558889D01*
X149081093Y-74617080D01*
X149070879Y-74629017D01*
X148629123Y-75069202D01*
X148574557Y-75096883D01*
X148558892Y-75098073D01*
X135050000Y-75050000D01*
X121540901Y-75001924D01*
X121482778Y-74982810D01*
X121471125Y-74972804D01*
X121028872Y-74528974D01*
X121001191Y-74474408D01*
X121000000Y-74459095D01*
X121000000Y-71134108D01*
X134999500Y-71134108D01*
X134999500Y-71265892D01*
X135029579Y-71378151D01*
X135033609Y-71393190D01*
X135099496Y-71507309D01*
X135099498Y-71507311D01*
X135099500Y-71507314D01*
X135192686Y-71600500D01*
X135192688Y-71600501D01*
X135192690Y-71600503D01*
X135306810Y-71666390D01*
X135306808Y-71666390D01*
X135306812Y-71666391D01*
X135306814Y-71666392D01*
X135434108Y-71700500D01*
X135434110Y-71700500D01*
X135565890Y-71700500D01*
X135565892Y-71700500D01*
X135693186Y-71666392D01*
X135693188Y-71666390D01*
X135693190Y-71666390D01*
X135807309Y-71600503D01*
X135807309Y-71600502D01*
X135807314Y-71600500D01*
X135900500Y-71507314D01*
X135966392Y-71393186D01*
X136000500Y-71265892D01*
X136000500Y-71134108D01*
X135966392Y-71006814D01*
X135966390Y-71006811D01*
X135966390Y-71006809D01*
X135900503Y-70892690D01*
X135900501Y-70892688D01*
X135900500Y-70892686D01*
X135807314Y-70799500D01*
X135807311Y-70799498D01*
X135807309Y-70799496D01*
X135693189Y-70733609D01*
X135693191Y-70733609D01*
X135643799Y-70720375D01*
X135565892Y-70699500D01*
X135434108Y-70699500D01*
X135356200Y-70720375D01*
X135306809Y-70733609D01*
X135192690Y-70799496D01*
X135099496Y-70892690D01*
X135033609Y-71006809D01*
X135033608Y-71006814D01*
X134999500Y-71134108D01*
X121000000Y-71134108D01*
X121000000Y-68716532D01*
X121249500Y-68716532D01*
X121249500Y-68923467D01*
X121289869Y-69126418D01*
X121369058Y-69317597D01*
X121424091Y-69399960D01*
X121484023Y-69489655D01*
X121630345Y-69635977D01*
X121802402Y-69750941D01*
X121993580Y-69830130D01*
X122196535Y-69870500D01*
X122196536Y-69870500D01*
X122403464Y-69870500D01*
X122403465Y-69870500D01*
X122606420Y-69830130D01*
X122797598Y-69750941D01*
X122969655Y-69635977D01*
X122971524Y-69634108D01*
X133699500Y-69634108D01*
X133699500Y-69765892D01*
X133721183Y-69846814D01*
X133733609Y-69893190D01*
X133799496Y-70007309D01*
X133799498Y-70007311D01*
X133799500Y-70007314D01*
X133892686Y-70100500D01*
X133892688Y-70100501D01*
X133892690Y-70100503D01*
X134006810Y-70166390D01*
X134006808Y-70166390D01*
X134006812Y-70166391D01*
X134006814Y-70166392D01*
X134134108Y-70200500D01*
X134134110Y-70200500D01*
X134265890Y-70200500D01*
X134265892Y-70200500D01*
X134393186Y-70166392D01*
X134393188Y-70166390D01*
X134393190Y-70166390D01*
X134507309Y-70100503D01*
X134507309Y-70100502D01*
X134507314Y-70100500D01*
X134579998Y-70027815D01*
X134634513Y-70000040D01*
X134694945Y-70009611D01*
X134720000Y-70027814D01*
X134792686Y-70100500D01*
X134792688Y-70100501D01*
X134792690Y-70100503D01*
X134906810Y-70166390D01*
X134906808Y-70166390D01*
X134906812Y-70166391D01*
X134906814Y-70166392D01*
X135034108Y-70200500D01*
X135034110Y-70200500D01*
X135165890Y-70200500D01*
X135165892Y-70200500D01*
X135293186Y-70166392D01*
X135293188Y-70166390D01*
X135293190Y-70166390D01*
X135407309Y-70100503D01*
X135407309Y-70100502D01*
X135407314Y-70100500D01*
X135500500Y-70007314D01*
X135529901Y-69956390D01*
X135566390Y-69893190D01*
X135566390Y-69893188D01*
X135566392Y-69893186D01*
X135600500Y-69765892D01*
X135600500Y-69634108D01*
X135566392Y-69506814D01*
X135543473Y-69467118D01*
X135543473Y-69467116D01*
X135518642Y-69424108D01*
X139109500Y-69424108D01*
X139109500Y-69555892D01*
X139139579Y-69668151D01*
X139143609Y-69683190D01*
X139209496Y-69797309D01*
X139209498Y-69797311D01*
X139209500Y-69797314D01*
X139302686Y-69890500D01*
X139302688Y-69890501D01*
X139302690Y-69890503D01*
X139416810Y-69956390D01*
X139416808Y-69956390D01*
X139416812Y-69956391D01*
X139416814Y-69956392D01*
X139544108Y-69990500D01*
X139560500Y-69990500D01*
X139618691Y-70009407D01*
X139654655Y-70058907D01*
X139659500Y-70089500D01*
X139659500Y-70105892D01*
X139675710Y-70166390D01*
X139693609Y-70233190D01*
X139759496Y-70347309D01*
X139759498Y-70347311D01*
X139759500Y-70347314D01*
X139852686Y-70440500D01*
X139852688Y-70440501D01*
X139852690Y-70440503D01*
X139966810Y-70506390D01*
X139966808Y-70506390D01*
X139966812Y-70506391D01*
X139966814Y-70506392D01*
X140094108Y-70540500D01*
X140094110Y-70540500D01*
X140225890Y-70540500D01*
X140225892Y-70540500D01*
X140353186Y-70506392D01*
X140353188Y-70506390D01*
X140353190Y-70506390D01*
X140467309Y-70440503D01*
X140467309Y-70440502D01*
X140467314Y-70440500D01*
X140560500Y-70347314D01*
X140626392Y-70233186D01*
X140660500Y-70105892D01*
X140660500Y-69974108D01*
X140626392Y-69846814D01*
X140626390Y-69846811D01*
X140626390Y-69846809D01*
X140560503Y-69732690D01*
X140560501Y-69732688D01*
X140560500Y-69732686D01*
X140467314Y-69639500D01*
X140467311Y-69639498D01*
X140467309Y-69639496D01*
X140353189Y-69573609D01*
X140353191Y-69573609D01*
X140303799Y-69560375D01*
X140225892Y-69539500D01*
X140225890Y-69539500D01*
X140209500Y-69539500D01*
X140151309Y-69520593D01*
X140115345Y-69471093D01*
X140110500Y-69440500D01*
X140110500Y-69424109D01*
X140110500Y-69424108D01*
X140076392Y-69296814D01*
X140076390Y-69296811D01*
X140076390Y-69296809D01*
X140010503Y-69182690D01*
X140010501Y-69182688D01*
X140010500Y-69182686D01*
X139917314Y-69089500D01*
X139917311Y-69089498D01*
X139917309Y-69089496D01*
X139803189Y-69023609D01*
X139803191Y-69023609D01*
X139753799Y-69010375D01*
X139675892Y-68989500D01*
X139544108Y-68989500D01*
X139466200Y-69010375D01*
X139416809Y-69023609D01*
X139302690Y-69089496D01*
X139209496Y-69182690D01*
X139143609Y-69296809D01*
X139143608Y-69296814D01*
X139109500Y-69424108D01*
X135518642Y-69424108D01*
X135500503Y-69392690D01*
X135500501Y-69392688D01*
X135500500Y-69392686D01*
X135407314Y-69299500D01*
X135407311Y-69299498D01*
X135407309Y-69299496D01*
X135293189Y-69233609D01*
X135293191Y-69233609D01*
X135243799Y-69220375D01*
X135165892Y-69199500D01*
X135034108Y-69199500D01*
X134956200Y-69220375D01*
X134906809Y-69233609D01*
X134792690Y-69299496D01*
X134792689Y-69299497D01*
X134792686Y-69299499D01*
X134792686Y-69299500D01*
X134720001Y-69372184D01*
X134665487Y-69399960D01*
X134605055Y-69390389D01*
X134579999Y-69372185D01*
X134507314Y-69299500D01*
X134507311Y-69299498D01*
X134507309Y-69299496D01*
X134393189Y-69233609D01*
X134393191Y-69233609D01*
X134343799Y-69220375D01*
X134265892Y-69199500D01*
X134134108Y-69199500D01*
X134056200Y-69220375D01*
X134006809Y-69233609D01*
X133892690Y-69299496D01*
X133799496Y-69392690D01*
X133733609Y-69506809D01*
X133714539Y-69577978D01*
X133699500Y-69634108D01*
X122971524Y-69634108D01*
X123115977Y-69489655D01*
X123230941Y-69317598D01*
X123310130Y-69126420D01*
X123350500Y-68923465D01*
X123350500Y-68716535D01*
X123310130Y-68513580D01*
X123230941Y-68322402D01*
X123115977Y-68150345D01*
X122969655Y-68004023D01*
X122797598Y-67889059D01*
X122797599Y-67889059D01*
X122797597Y-67889058D01*
X122606418Y-67809869D01*
X122403467Y-67769500D01*
X122403465Y-67769500D01*
X122196535Y-67769500D01*
X122196532Y-67769500D01*
X121993581Y-67809869D01*
X121802402Y-67889058D01*
X121630348Y-68004020D01*
X121484020Y-68150348D01*
X121369058Y-68322402D01*
X121289869Y-68513581D01*
X121249500Y-68716532D01*
X121000000Y-68716532D01*
X121000000Y-66176532D01*
X121249500Y-66176532D01*
X121249500Y-66383467D01*
X121289869Y-66586418D01*
X121369058Y-66777597D01*
X121369059Y-66777598D01*
X121484023Y-66949655D01*
X121630345Y-67095977D01*
X121802402Y-67210941D01*
X121993580Y-67290130D01*
X122196535Y-67330500D01*
X122196536Y-67330500D01*
X122403464Y-67330500D01*
X122403465Y-67330500D01*
X122606420Y-67290130D01*
X122797598Y-67210941D01*
X122969655Y-67095977D01*
X123115977Y-66949655D01*
X123230941Y-66777598D01*
X123310130Y-66586420D01*
X123350500Y-66383465D01*
X123350500Y-66176535D01*
X123310130Y-65973580D01*
X123230941Y-65782402D01*
X123115977Y-65610345D01*
X122969655Y-65464023D01*
X122969651Y-65464020D01*
X122797597Y-65349058D01*
X122606418Y-65269869D01*
X122403467Y-65229500D01*
X122403465Y-65229500D01*
X122196535Y-65229500D01*
X122196532Y-65229500D01*
X121993581Y-65269869D01*
X121802402Y-65349058D01*
X121630348Y-65464020D01*
X121484020Y-65610348D01*
X121369058Y-65782402D01*
X121289869Y-65973581D01*
X121249500Y-66176532D01*
X121000000Y-66176532D01*
X121000000Y-63636532D01*
X121249500Y-63636532D01*
X121249500Y-63843467D01*
X121289869Y-64046418D01*
X121369058Y-64237597D01*
X121484020Y-64409651D01*
X121484023Y-64409655D01*
X121630345Y-64555977D01*
X121802402Y-64670941D01*
X121993580Y-64750130D01*
X122196535Y-64790500D01*
X122196536Y-64790500D01*
X122403464Y-64790500D01*
X122403465Y-64790500D01*
X122606420Y-64750130D01*
X122645100Y-64734108D01*
X127399500Y-64734108D01*
X127399500Y-64865892D01*
X127429579Y-64978151D01*
X127433609Y-64993190D01*
X127499496Y-65107309D01*
X127499501Y-65107315D01*
X127522183Y-65129998D01*
X127549959Y-65184515D01*
X127540387Y-65244947D01*
X127522183Y-65270002D01*
X127499501Y-65292684D01*
X127499496Y-65292690D01*
X127433609Y-65406809D01*
X127433608Y-65406814D01*
X127399500Y-65534108D01*
X127399500Y-65665892D01*
X127429579Y-65778151D01*
X127433609Y-65793190D01*
X127499496Y-65907309D01*
X127499498Y-65907311D01*
X127499500Y-65907314D01*
X127592686Y-66000500D01*
X127592688Y-66000501D01*
X127592690Y-66000503D01*
X127706810Y-66066390D01*
X127706808Y-66066390D01*
X127706812Y-66066391D01*
X127706814Y-66066392D01*
X127834108Y-66100500D01*
X127834110Y-66100500D01*
X127965890Y-66100500D01*
X127965892Y-66100500D01*
X128093186Y-66066392D01*
X128093188Y-66066390D01*
X128093190Y-66066390D01*
X128207309Y-66000503D01*
X128207309Y-66000502D01*
X128207314Y-66000500D01*
X128300500Y-65907314D01*
X128366392Y-65793186D01*
X128400500Y-65665892D01*
X128400500Y-65534108D01*
X128366392Y-65406814D01*
X128366390Y-65406811D01*
X128366390Y-65406809D01*
X128300503Y-65292690D01*
X128300501Y-65292688D01*
X128300500Y-65292686D01*
X128277815Y-65270001D01*
X128250040Y-65215487D01*
X128259611Y-65155055D01*
X128277816Y-65129998D01*
X128300500Y-65107314D01*
X128366392Y-64993186D01*
X128400500Y-64865892D01*
X128400500Y-64734108D01*
X128366392Y-64606814D01*
X128366390Y-64606811D01*
X128366390Y-64606809D01*
X128300503Y-64492690D01*
X128300501Y-64492688D01*
X128300500Y-64492686D01*
X128207314Y-64399500D01*
X128207311Y-64399498D01*
X128207309Y-64399496D01*
X128093189Y-64333609D01*
X128093191Y-64333609D01*
X128043799Y-64320375D01*
X127965892Y-64299500D01*
X127834108Y-64299500D01*
X127756200Y-64320375D01*
X127706809Y-64333609D01*
X127592690Y-64399496D01*
X127499496Y-64492690D01*
X127433609Y-64606809D01*
X127433608Y-64606814D01*
X127399500Y-64734108D01*
X122645100Y-64734108D01*
X122797598Y-64670941D01*
X122969655Y-64555977D01*
X123115977Y-64409655D01*
X123230941Y-64237598D01*
X123310130Y-64046420D01*
X123350500Y-63843465D01*
X123350500Y-63636535D01*
X123310130Y-63433580D01*
X123230941Y-63242402D01*
X123115977Y-63070345D01*
X122969655Y-62924023D01*
X122969651Y-62924020D01*
X122797597Y-62809058D01*
X122606418Y-62729869D01*
X122403467Y-62689500D01*
X122403465Y-62689500D01*
X122196535Y-62689500D01*
X122196532Y-62689500D01*
X121993581Y-62729869D01*
X121802402Y-62809058D01*
X121630348Y-62924020D01*
X121484020Y-63070348D01*
X121369058Y-63242402D01*
X121289869Y-63433581D01*
X121249500Y-63636532D01*
X121000000Y-63636532D01*
X121000000Y-61096532D01*
X121249500Y-61096532D01*
X121249500Y-61303467D01*
X121289869Y-61506418D01*
X121369058Y-61697597D01*
X121448165Y-61815990D01*
X121484023Y-61869655D01*
X121630345Y-62015977D01*
X121802402Y-62130941D01*
X121993580Y-62210130D01*
X122196535Y-62250500D01*
X122196536Y-62250500D01*
X122403464Y-62250500D01*
X122403465Y-62250500D01*
X122606420Y-62210130D01*
X122797598Y-62130941D01*
X122969655Y-62015977D01*
X123115977Y-61869655D01*
X123230941Y-61697598D01*
X123310130Y-61506420D01*
X123350500Y-61303465D01*
X123350500Y-61096535D01*
X123310130Y-60893580D01*
X123230941Y-60702402D01*
X123115977Y-60530345D01*
X122969655Y-60384023D01*
X122797598Y-60269059D01*
X122797599Y-60269059D01*
X122797597Y-60269058D01*
X122606418Y-60189869D01*
X122403467Y-60149500D01*
X122403465Y-60149500D01*
X122196535Y-60149500D01*
X122196532Y-60149500D01*
X121993581Y-60189869D01*
X121802402Y-60269058D01*
X121630348Y-60384020D01*
X121484020Y-60530348D01*
X121369058Y-60702402D01*
X121289869Y-60893581D01*
X121249500Y-61096532D01*
X121000000Y-61096532D01*
X121000000Y-57790253D01*
X121249500Y-57790253D01*
X121249500Y-59529746D01*
X121249501Y-59529758D01*
X121261132Y-59588227D01*
X121261134Y-59588233D01*
X121295432Y-59639562D01*
X121305448Y-59654552D01*
X121371769Y-59698867D01*
X121414210Y-59707309D01*
X121430241Y-59710498D01*
X121430246Y-59710498D01*
X121430252Y-59710500D01*
X121430253Y-59710500D01*
X123169747Y-59710500D01*
X123169748Y-59710500D01*
X123228231Y-59698867D01*
X123294552Y-59654552D01*
X123338867Y-59588231D01*
X123350500Y-59529748D01*
X123350500Y-58134108D01*
X125899500Y-58134108D01*
X125899500Y-58265892D01*
X125926390Y-58366247D01*
X125933609Y-58393190D01*
X125999496Y-58507309D01*
X125999498Y-58507311D01*
X125999500Y-58507314D01*
X126092686Y-58600500D01*
X126092688Y-58600501D01*
X126092690Y-58600503D01*
X126206810Y-58666390D01*
X126206808Y-58666390D01*
X126206812Y-58666391D01*
X126206814Y-58666392D01*
X126334108Y-58700500D01*
X126334110Y-58700500D01*
X126400500Y-58700500D01*
X126415412Y-58705345D01*
X126431093Y-58705345D01*
X126443778Y-58714561D01*
X126458691Y-58719407D01*
X126467907Y-58732092D01*
X126480593Y-58741309D01*
X126485438Y-58756221D01*
X126494655Y-58768907D01*
X126499500Y-58799500D01*
X126499500Y-58800500D01*
X126480593Y-58858691D01*
X126431093Y-58894655D01*
X126400500Y-58899500D01*
X126334108Y-58899500D01*
X126288200Y-58911801D01*
X126206809Y-58933609D01*
X126092690Y-58999496D01*
X125999496Y-59092690D01*
X125933609Y-59206809D01*
X125933608Y-59206814D01*
X125899500Y-59334108D01*
X125899500Y-59465892D01*
X125916610Y-59529748D01*
X125933609Y-59593190D01*
X125999496Y-59707309D01*
X125999498Y-59707311D01*
X125999500Y-59707314D01*
X126092686Y-59800500D01*
X126092688Y-59800501D01*
X126092690Y-59800503D01*
X126206810Y-59866390D01*
X126206808Y-59866390D01*
X126206812Y-59866391D01*
X126206814Y-59866392D01*
X126334108Y-59900500D01*
X126334110Y-59900500D01*
X126465890Y-59900500D01*
X126465892Y-59900500D01*
X126593186Y-59866392D01*
X126593188Y-59866390D01*
X126593190Y-59866390D01*
X126707309Y-59800503D01*
X126707309Y-59800502D01*
X126707314Y-59800500D01*
X126800500Y-59707314D01*
X126805378Y-59698865D01*
X126866390Y-59593190D01*
X126866390Y-59593188D01*
X126866392Y-59593186D01*
X126900500Y-59465892D01*
X126900500Y-59399500D01*
X126905345Y-59384588D01*
X126905345Y-59368907D01*
X126914561Y-59356221D01*
X126919407Y-59341309D01*
X126932092Y-59332092D01*
X126941309Y-59319407D01*
X126956221Y-59314561D01*
X126968907Y-59305345D01*
X126999500Y-59300500D01*
X127000500Y-59300500D01*
X127058691Y-59319407D01*
X127094655Y-59368907D01*
X127099500Y-59399500D01*
X127099500Y-59465892D01*
X127116610Y-59529748D01*
X127133609Y-59593190D01*
X127199496Y-59707309D01*
X127199498Y-59707311D01*
X127199500Y-59707314D01*
X127292686Y-59800500D01*
X127292688Y-59800501D01*
X127292690Y-59800503D01*
X127406810Y-59866390D01*
X127406808Y-59866390D01*
X127406812Y-59866391D01*
X127406814Y-59866392D01*
X127534108Y-59900500D01*
X127534110Y-59900500D01*
X127665890Y-59900500D01*
X127665892Y-59900500D01*
X127793186Y-59866392D01*
X127793188Y-59866390D01*
X127793190Y-59866390D01*
X127907309Y-59800503D01*
X127907309Y-59800502D01*
X127907314Y-59800500D01*
X128000500Y-59707314D01*
X128005378Y-59698865D01*
X128066390Y-59593190D01*
X128066390Y-59593188D01*
X128066392Y-59593186D01*
X128100500Y-59465892D01*
X128100500Y-59334108D01*
X128066392Y-59206814D01*
X128066390Y-59206811D01*
X128066390Y-59206809D01*
X128000503Y-59092690D01*
X128000501Y-59092688D01*
X128000500Y-59092686D01*
X127907314Y-58999500D01*
X127907311Y-58999498D01*
X127907309Y-58999496D01*
X127793189Y-58933609D01*
X127793191Y-58933609D01*
X127711800Y-58911801D01*
X127665892Y-58899500D01*
X127599500Y-58899500D01*
X127584588Y-58894655D01*
X127568907Y-58894655D01*
X127556221Y-58885438D01*
X127541309Y-58880593D01*
X127532092Y-58867907D01*
X127519407Y-58858691D01*
X127514561Y-58843778D01*
X127505345Y-58831093D01*
X127500500Y-58800500D01*
X127500500Y-58799500D01*
X127519407Y-58741309D01*
X127568907Y-58705345D01*
X127599500Y-58700500D01*
X127665890Y-58700500D01*
X127665892Y-58700500D01*
X127793186Y-58666392D01*
X127793188Y-58666390D01*
X127793190Y-58666390D01*
X127907309Y-58600503D01*
X127907309Y-58600502D01*
X127907314Y-58600500D01*
X128000500Y-58507314D01*
X128030371Y-58455576D01*
X128066390Y-58393190D01*
X128066390Y-58393188D01*
X128066392Y-58393186D01*
X128075168Y-58360435D01*
X128299500Y-58360435D01*
X128299500Y-61739564D01*
X128319977Y-61815985D01*
X128319979Y-61815990D01*
X128345121Y-61859538D01*
X128359538Y-61884508D01*
X128359540Y-61884511D01*
X129159540Y-62684511D01*
X129159539Y-62684511D01*
X129215489Y-62740460D01*
X129284007Y-62780019D01*
X129284011Y-62780021D01*
X129360435Y-62800499D01*
X129360437Y-62800500D01*
X129360438Y-62800500D01*
X129834521Y-62800500D01*
X129892712Y-62819407D01*
X129904525Y-62829496D01*
X130440396Y-63365367D01*
X130453577Y-63382735D01*
X130453752Y-63382613D01*
X130456542Y-63386594D01*
X130456543Y-63386596D01*
X130498275Y-63446144D01*
X130600467Y-63591964D01*
X130603396Y-63594806D01*
X130615399Y-63610206D01*
X130615582Y-63610066D01*
X130619526Y-63615206D01*
X130619529Y-63615209D01*
X130619531Y-63615212D01*
X130684788Y-63680469D01*
X130764712Y-63726614D01*
X130853856Y-63750500D01*
X130853858Y-63750500D01*
X130946142Y-63750500D01*
X130946144Y-63750500D01*
X131035288Y-63726614D01*
X131115212Y-63680469D01*
X131180469Y-63615212D01*
X131226614Y-63535288D01*
X131250500Y-63446144D01*
X131250500Y-63353856D01*
X131249993Y-63351964D01*
X131250066Y-63350564D01*
X131249653Y-63347424D01*
X131250234Y-63347347D01*
X131253191Y-63290867D01*
X131291692Y-63243314D01*
X131319993Y-63230712D01*
X131335288Y-63226614D01*
X131415212Y-63180469D01*
X131480469Y-63115212D01*
X131526614Y-63035288D01*
X131550500Y-62946144D01*
X131550500Y-62853856D01*
X131526614Y-62764712D01*
X131480469Y-62684788D01*
X131415212Y-62619531D01*
X131415209Y-62619529D01*
X131410064Y-62615581D01*
X131410213Y-62615386D01*
X131394231Y-62602837D01*
X131391968Y-62600471D01*
X131391967Y-62600470D01*
X131391964Y-62600467D01*
X131391958Y-62600463D01*
X131391956Y-62600461D01*
X131186601Y-62456546D01*
X131184855Y-62455512D01*
X131165312Y-62440341D01*
X130729496Y-62004525D01*
X130701719Y-61950008D01*
X130700500Y-61934521D01*
X130700500Y-57144416D01*
X139974008Y-57144416D01*
X139974261Y-57148035D01*
X139974500Y-57154914D01*
X139974500Y-57157147D01*
X139974500Y-57242853D01*
X139996682Y-57325638D01*
X139996683Y-57325640D01*
X139996684Y-57325642D01*
X140011036Y-57350502D01*
X140023756Y-57410350D01*
X140011036Y-57449498D01*
X139996684Y-57474357D01*
X139996683Y-57474359D01*
X139996682Y-57474361D01*
X139996682Y-57474362D01*
X139974500Y-57557147D01*
X139974500Y-57642853D01*
X139996682Y-57725638D01*
X139996683Y-57725640D01*
X139996684Y-57725642D01*
X140011036Y-57750502D01*
X140023756Y-57810350D01*
X140011036Y-57849498D01*
X139996684Y-57874357D01*
X139996683Y-57874359D01*
X139996682Y-57874361D01*
X139996682Y-57874362D01*
X139981214Y-57932092D01*
X139974500Y-57957148D01*
X139974500Y-58045723D01*
X139974049Y-58055160D01*
X139974009Y-58055572D01*
X139974009Y-58055576D01*
X139974009Y-58055580D01*
X139980902Y-58123672D01*
X139994479Y-58257775D01*
X139995859Y-58262719D01*
X139999500Y-58289321D01*
X139999500Y-59639564D01*
X140019978Y-59715988D01*
X140040192Y-59750999D01*
X140045642Y-59760438D01*
X140059540Y-59784511D01*
X140659540Y-60384511D01*
X140659539Y-60384511D01*
X140715489Y-60440460D01*
X140784007Y-60480019D01*
X140784011Y-60480021D01*
X140860435Y-60500499D01*
X140860437Y-60500500D01*
X140860438Y-60500500D01*
X146239565Y-60500500D01*
X146239565Y-60500499D01*
X146315991Y-60480021D01*
X146384513Y-60440460D01*
X146440462Y-60384511D01*
X148008145Y-58816826D01*
X148031720Y-58799394D01*
X148033763Y-58798310D01*
X148191209Y-58669812D01*
X148193555Y-58667114D01*
X148198266Y-58662062D01*
X148199860Y-58660467D01*
X148199863Y-58660466D01*
X148260466Y-58599863D01*
X148303319Y-58525639D01*
X148325501Y-58442854D01*
X148325501Y-58357148D01*
X148303319Y-58274363D01*
X148260466Y-58200139D01*
X148199863Y-58139536D01*
X148125639Y-58096683D01*
X148042854Y-58074501D01*
X147957148Y-58074501D01*
X147874367Y-58096682D01*
X147874363Y-58096683D01*
X147800136Y-58139538D01*
X147737505Y-58202169D01*
X147730530Y-58208509D01*
X147730197Y-58208783D01*
X147730186Y-58208794D01*
X147601683Y-58366247D01*
X147599162Y-58370720D01*
X147582931Y-58392098D01*
X146104527Y-59870504D01*
X146050010Y-59898281D01*
X146034523Y-59899500D01*
X145645544Y-59899500D01*
X145587353Y-59880593D01*
X145551389Y-59831093D01*
X145551389Y-59769907D01*
X145559808Y-59750999D01*
X145580022Y-59715988D01*
X145600500Y-59639562D01*
X145600500Y-59560438D01*
X145600500Y-58688987D01*
X145604841Y-58659993D01*
X145605519Y-58657777D01*
X145605520Y-58657775D01*
X145625990Y-58455580D01*
X145625740Y-58451996D01*
X145625500Y-58445105D01*
X145625500Y-58357148D01*
X145617020Y-58325500D01*
X145603318Y-58274362D01*
X145560465Y-58200138D01*
X145499862Y-58139535D01*
X145425638Y-58096682D01*
X145342853Y-58074500D01*
X145257147Y-58074500D01*
X145174362Y-58096682D01*
X145100138Y-58139535D01*
X145039535Y-58200138D01*
X144996682Y-58274362D01*
X144974500Y-58357148D01*
X144974500Y-58445723D01*
X144974049Y-58455160D01*
X144974009Y-58455572D01*
X144974009Y-58455576D01*
X144994479Y-58657775D01*
X144994480Y-58657777D01*
X144995675Y-58662062D01*
X144995859Y-58662719D01*
X144999500Y-58689321D01*
X144999500Y-59400500D01*
X144980593Y-59458691D01*
X144931093Y-59494655D01*
X144900500Y-59499500D01*
X143665479Y-59499500D01*
X143607288Y-59480593D01*
X143595475Y-59470504D01*
X142549471Y-58424500D01*
X141484511Y-57359540D01*
X141478480Y-57356058D01*
X141478475Y-57356055D01*
X141478475Y-57356054D01*
X141415989Y-57319979D01*
X141415985Y-57319977D01*
X141339564Y-57299500D01*
X141339562Y-57299500D01*
X140724500Y-57299500D01*
X140709588Y-57294655D01*
X140693907Y-57294655D01*
X140681221Y-57285438D01*
X140666309Y-57280593D01*
X140657092Y-57267907D01*
X140644407Y-57258691D01*
X140639561Y-57243778D01*
X140630345Y-57231093D01*
X140625500Y-57200500D01*
X140625500Y-57154266D01*
X140625951Y-57144826D01*
X140625990Y-57144419D01*
X140605520Y-56942225D01*
X140605519Y-56942220D01*
X140605519Y-56942219D01*
X140604139Y-56937270D01*
X140600500Y-56910677D01*
X140600500Y-56665479D01*
X140619407Y-56607288D01*
X140629496Y-56595475D01*
X141295475Y-55929496D01*
X141349992Y-55901719D01*
X141365479Y-55900500D01*
X146834521Y-55900500D01*
X146892712Y-55919407D01*
X146904525Y-55929496D01*
X147583168Y-56608139D01*
X147600597Y-56631705D01*
X147601688Y-56633759D01*
X147627576Y-56665479D01*
X147730184Y-56791204D01*
X147732893Y-56793560D01*
X147737931Y-56798259D01*
X147800135Y-56860462D01*
X147800138Y-56860465D01*
X147874362Y-56903318D01*
X147957147Y-56925500D01*
X147957149Y-56925500D01*
X148042851Y-56925500D01*
X148042853Y-56925500D01*
X148125638Y-56903318D01*
X148199862Y-56860465D01*
X148260465Y-56799862D01*
X148303318Y-56725638D01*
X148325500Y-56642853D01*
X148325500Y-56557147D01*
X148303318Y-56474362D01*
X148260465Y-56400138D01*
X148199862Y-56339535D01*
X148199859Y-56339533D01*
X148197821Y-56337495D01*
X148191469Y-56330505D01*
X148191207Y-56330187D01*
X148191204Y-56330184D01*
X148191203Y-56330183D01*
X148033755Y-56201685D01*
X148029285Y-56199165D01*
X148007902Y-56182931D01*
X147725471Y-55900500D01*
X147184511Y-55359540D01*
X147184508Y-55359538D01*
X147115992Y-55319980D01*
X147115988Y-55319978D01*
X147039564Y-55299500D01*
X147039562Y-55299500D01*
X141160438Y-55299500D01*
X141160435Y-55299500D01*
X141084011Y-55319978D01*
X141084007Y-55319980D01*
X141015491Y-55359538D01*
X140115489Y-56259540D01*
X140115488Y-56259539D01*
X140059539Y-56315489D01*
X140019980Y-56384007D01*
X140019978Y-56384011D01*
X139999500Y-56460435D01*
X139999500Y-56911012D01*
X139995159Y-56940005D01*
X139994480Y-56942220D01*
X139994478Y-56942230D01*
X139974009Y-57144410D01*
X139974008Y-57144416D01*
X130700500Y-57144416D01*
X130700500Y-52943982D01*
X141074500Y-52943982D01*
X141074500Y-53056018D01*
X141077858Y-53068550D01*
X141103498Y-53164241D01*
X141159513Y-53261260D01*
X141159515Y-53261263D01*
X141238737Y-53340485D01*
X141238739Y-53340486D01*
X141335759Y-53396501D01*
X141335757Y-53396501D01*
X141335761Y-53396502D01*
X141335763Y-53396503D01*
X141443982Y-53425500D01*
X141443984Y-53425500D01*
X141556016Y-53425500D01*
X141556018Y-53425500D01*
X141664237Y-53396503D01*
X141664239Y-53396501D01*
X141664241Y-53396501D01*
X141693064Y-53379859D01*
X141761263Y-53340485D01*
X141840485Y-53261263D01*
X141896503Y-53164237D01*
X141925500Y-53056018D01*
X141925500Y-52966255D01*
X141944407Y-52908064D01*
X141993907Y-52872100D01*
X142055093Y-52872100D01*
X142094501Y-52896249D01*
X142138737Y-52940485D01*
X142138739Y-52940486D01*
X142235759Y-52996501D01*
X142235757Y-52996501D01*
X142235761Y-52996502D01*
X142235763Y-52996503D01*
X142343982Y-53025500D01*
X142343984Y-53025500D01*
X142456016Y-53025500D01*
X142456018Y-53025500D01*
X142556611Y-52998546D01*
X142617709Y-53001748D01*
X142665259Y-53040253D01*
X142677858Y-53068550D01*
X142703498Y-53164241D01*
X142759513Y-53261260D01*
X142759515Y-53261263D01*
X142838737Y-53340485D01*
X142838739Y-53340486D01*
X142935759Y-53396501D01*
X142935757Y-53396501D01*
X142935761Y-53396502D01*
X142935763Y-53396503D01*
X143043982Y-53425500D01*
X143043984Y-53425500D01*
X143156016Y-53425500D01*
X143156018Y-53425500D01*
X143264237Y-53396503D01*
X143264239Y-53396501D01*
X143264241Y-53396501D01*
X143293064Y-53379859D01*
X143361263Y-53340485D01*
X143440485Y-53261263D01*
X143496503Y-53164237D01*
X143525500Y-53056018D01*
X143525500Y-52943982D01*
X143496503Y-52835763D01*
X143496501Y-52835760D01*
X143496501Y-52835758D01*
X143440486Y-52738739D01*
X143440485Y-52738737D01*
X143361263Y-52659515D01*
X143320077Y-52635736D01*
X143279136Y-52590267D01*
X143272740Y-52529417D01*
X143303333Y-52476429D01*
X143320077Y-52464264D01*
X143344895Y-52449935D01*
X143361263Y-52440485D01*
X143440485Y-52361263D01*
X143496503Y-52264237D01*
X143525500Y-52156018D01*
X143525500Y-52043982D01*
X143496503Y-51935763D01*
X143496501Y-51935760D01*
X143496501Y-51935758D01*
X143440486Y-51838739D01*
X143440485Y-51838737D01*
X143361263Y-51759515D01*
X143361260Y-51759513D01*
X143264240Y-51703498D01*
X143264242Y-51703498D01*
X143222251Y-51692247D01*
X143156018Y-51674500D01*
X143043982Y-51674500D01*
X142977748Y-51692247D01*
X142935758Y-51703498D01*
X142838739Y-51759513D01*
X142759513Y-51838739D01*
X142703498Y-51935758D01*
X142674500Y-52043983D01*
X142674500Y-52104022D01*
X142655593Y-52162213D01*
X142606093Y-52198177D01*
X142549878Y-52199649D01*
X142487020Y-52182807D01*
X142456018Y-52174500D01*
X142343982Y-52174500D01*
X142288210Y-52189444D01*
X142235758Y-52203498D01*
X142147256Y-52254596D01*
X142087408Y-52267318D01*
X142031512Y-52242432D01*
X142000919Y-52189444D01*
X142002128Y-52143240D01*
X142025500Y-52056018D01*
X142025500Y-51943982D01*
X141996503Y-51835763D01*
X141996501Y-51835760D01*
X141996501Y-51835758D01*
X141940486Y-51738739D01*
X141940485Y-51738737D01*
X141861263Y-51659515D01*
X141861260Y-51659513D01*
X141764240Y-51603498D01*
X141764242Y-51603498D01*
X141722251Y-51592247D01*
X141656018Y-51574500D01*
X141543982Y-51574500D01*
X141477748Y-51592247D01*
X141435758Y-51603498D01*
X141338739Y-51659513D01*
X141259513Y-51738739D01*
X141203498Y-51835758D01*
X141187286Y-51896263D01*
X141174500Y-51943982D01*
X141174500Y-52056018D01*
X141187363Y-52104022D01*
X141203498Y-52164241D01*
X141258506Y-52259515D01*
X141259515Y-52261263D01*
X141338737Y-52340485D01*
X141338739Y-52340486D01*
X141441382Y-52399748D01*
X141439874Y-52402359D01*
X141476960Y-52433981D01*
X141491292Y-52493464D01*
X141467924Y-52550011D01*
X141418215Y-52581403D01*
X141335763Y-52603496D01*
X141335759Y-52603498D01*
X141238739Y-52659513D01*
X141159513Y-52738739D01*
X141103498Y-52835758D01*
X141087289Y-52896251D01*
X141074500Y-52943982D01*
X130700500Y-52943982D01*
X130700500Y-43953856D01*
X133249500Y-43953856D01*
X133249500Y-44046144D01*
X133273386Y-44135288D01*
X133319531Y-44215212D01*
X133384317Y-44279998D01*
X133412093Y-44334513D01*
X133402522Y-44394945D01*
X133384318Y-44420000D01*
X133319531Y-44484788D01*
X133319529Y-44484790D01*
X133273387Y-44564709D01*
X133273386Y-44564711D01*
X133273386Y-44564712D01*
X133249500Y-44653856D01*
X133249500Y-44746144D01*
X133273386Y-44835288D01*
X133319531Y-44915212D01*
X133334317Y-44929998D01*
X133362093Y-44984513D01*
X133352522Y-45044945D01*
X133334318Y-45070000D01*
X133319531Y-45084788D01*
X133319529Y-45084790D01*
X133273387Y-45164709D01*
X133273386Y-45164711D01*
X133273386Y-45164712D01*
X133249500Y-45253856D01*
X133249500Y-45346144D01*
X133268851Y-45418362D01*
X133273387Y-45435290D01*
X133285585Y-45456418D01*
X133319531Y-45515212D01*
X133384788Y-45580469D01*
X133464712Y-45626614D01*
X133553856Y-45650500D01*
X133553858Y-45650500D01*
X133646142Y-45650500D01*
X133646144Y-45650500D01*
X133735288Y-45626614D01*
X133815212Y-45580469D01*
X133880469Y-45515212D01*
X133926614Y-45435288D01*
X133950500Y-45346144D01*
X133950500Y-45253856D01*
X133926614Y-45164712D01*
X133880469Y-45084788D01*
X133865682Y-45070001D01*
X133837907Y-45015487D01*
X133847478Y-44955055D01*
X133865681Y-44929999D01*
X133880469Y-44915212D01*
X133926614Y-44835288D01*
X133950500Y-44746144D01*
X133950500Y-44653856D01*
X133926614Y-44564712D01*
X133880469Y-44484788D01*
X133815682Y-44420001D01*
X133787907Y-44365487D01*
X133797478Y-44305055D01*
X133815681Y-44279999D01*
X133880469Y-44215212D01*
X133926614Y-44135288D01*
X133950500Y-44046144D01*
X133950500Y-43953856D01*
X133926614Y-43864712D01*
X133880469Y-43784788D01*
X133815212Y-43719531D01*
X133735288Y-43673386D01*
X133646144Y-43649500D01*
X133553856Y-43649500D01*
X133464712Y-43673386D01*
X133464711Y-43673386D01*
X133464709Y-43673387D01*
X133384790Y-43719529D01*
X133319529Y-43784790D01*
X133273387Y-43864709D01*
X133273386Y-43864711D01*
X133273386Y-43864712D01*
X133249500Y-43953856D01*
X130700500Y-43953856D01*
X130700500Y-42849484D01*
X130703460Y-42827874D01*
X130703252Y-42827838D01*
X130716266Y-42753854D01*
X130747541Y-42576062D01*
X130747479Y-42571988D01*
X130749883Y-42552607D01*
X130749653Y-42552577D01*
X130750500Y-42546145D01*
X130750500Y-42453857D01*
X130745524Y-42435286D01*
X130726614Y-42364712D01*
X130680469Y-42284788D01*
X130615212Y-42219531D01*
X130577677Y-42197860D01*
X130535290Y-42173387D01*
X130535289Y-42173386D01*
X130535288Y-42173386D01*
X130446144Y-42149500D01*
X130353856Y-42149500D01*
X130264712Y-42173386D01*
X130264711Y-42173386D01*
X130264709Y-42173387D01*
X130199501Y-42211036D01*
X130139652Y-42223758D01*
X130100499Y-42211036D01*
X130035290Y-42173387D01*
X130035289Y-42173386D01*
X130035288Y-42173386D01*
X129946144Y-42149500D01*
X129853856Y-42149500D01*
X129764712Y-42173386D01*
X129764711Y-42173386D01*
X129764709Y-42173387D01*
X129684790Y-42219529D01*
X129619529Y-42284790D01*
X129573387Y-42364709D01*
X129573386Y-42364711D01*
X129573386Y-42364712D01*
X129549500Y-42453856D01*
X129549500Y-42546144D01*
X129549501Y-42546147D01*
X129550347Y-42552573D01*
X129550104Y-42552604D01*
X129552531Y-42572767D01*
X129552458Y-42576052D01*
X129552458Y-42576058D01*
X129595907Y-42823051D01*
X129596408Y-42825009D01*
X129599500Y-42849557D01*
X129599500Y-56934521D01*
X129580593Y-56992712D01*
X129570504Y-57004525D01*
X128415489Y-58159540D01*
X128415488Y-58159539D01*
X128359539Y-58215489D01*
X128319980Y-58284007D01*
X128319978Y-58284011D01*
X128299500Y-58360435D01*
X128075168Y-58360435D01*
X128100500Y-58265892D01*
X128100500Y-58134108D01*
X128066392Y-58006814D01*
X128066390Y-58006811D01*
X128066390Y-58006809D01*
X128000503Y-57892690D01*
X128000501Y-57892688D01*
X128000500Y-57892686D01*
X127907314Y-57799500D01*
X127907311Y-57799498D01*
X127907309Y-57799496D01*
X127793189Y-57733609D01*
X127793191Y-57733609D01*
X127743799Y-57720375D01*
X127665892Y-57699500D01*
X127534108Y-57699500D01*
X127456200Y-57720375D01*
X127406809Y-57733609D01*
X127292690Y-57799496D01*
X127199496Y-57892690D01*
X127133609Y-58006809D01*
X127099500Y-58134109D01*
X127099500Y-58200500D01*
X127094655Y-58215411D01*
X127094655Y-58231093D01*
X127085438Y-58243778D01*
X127080593Y-58258691D01*
X127067907Y-58267907D01*
X127058691Y-58280593D01*
X127043778Y-58285438D01*
X127031093Y-58294655D01*
X127000500Y-58299500D01*
X126999500Y-58299500D01*
X126941309Y-58280593D01*
X126905345Y-58231093D01*
X126900500Y-58200500D01*
X126900500Y-58134109D01*
X126890472Y-58096683D01*
X126866392Y-58006814D01*
X126866390Y-58006811D01*
X126866390Y-58006809D01*
X126800503Y-57892690D01*
X126800501Y-57892688D01*
X126800500Y-57892686D01*
X126707314Y-57799500D01*
X126707311Y-57799498D01*
X126707309Y-57799496D01*
X126593189Y-57733609D01*
X126593191Y-57733609D01*
X126543799Y-57720375D01*
X126465892Y-57699500D01*
X126334108Y-57699500D01*
X126256200Y-57720375D01*
X126206809Y-57733609D01*
X126092690Y-57799496D01*
X125999496Y-57892690D01*
X125933609Y-58006809D01*
X125923182Y-58045723D01*
X125899500Y-58134108D01*
X123350500Y-58134108D01*
X123350500Y-57790252D01*
X123338867Y-57731769D01*
X123294552Y-57665448D01*
X123260734Y-57642851D01*
X123228233Y-57621134D01*
X123228231Y-57621133D01*
X123228228Y-57621132D01*
X123228227Y-57621132D01*
X123169758Y-57609501D01*
X123169748Y-57609500D01*
X121430252Y-57609500D01*
X121430251Y-57609500D01*
X121430241Y-57609501D01*
X121371772Y-57621132D01*
X121371766Y-57621134D01*
X121305451Y-57665445D01*
X121305445Y-57665451D01*
X121261134Y-57731766D01*
X121261132Y-57731772D01*
X121249501Y-57790241D01*
X121249500Y-57790253D01*
X121000000Y-57790253D01*
X121000000Y-55239817D01*
X121018907Y-55181626D01*
X121068407Y-55145662D01*
X121129593Y-55145662D01*
X121148494Y-55154078D01*
X121201315Y-55184574D01*
X121316910Y-55215547D01*
X121316912Y-55215547D01*
X121436580Y-55215547D01*
X121436582Y-55215547D01*
X121552177Y-55184574D01*
X121655816Y-55124738D01*
X121740437Y-55040117D01*
X121786310Y-54960663D01*
X121831779Y-54919722D01*
X121892629Y-54913326D01*
X121945617Y-54943919D01*
X121957782Y-54960663D01*
X122003655Y-55040117D01*
X122088276Y-55124738D01*
X122152455Y-55161792D01*
X122191912Y-55184572D01*
X122191915Y-55184574D01*
X122307510Y-55215547D01*
X122307512Y-55215547D01*
X122427180Y-55215547D01*
X122427182Y-55215547D01*
X122542777Y-55184574D01*
X122646416Y-55124738D01*
X122731037Y-55040117D01*
X122790873Y-54936478D01*
X122821846Y-54820883D01*
X122821846Y-54701211D01*
X122815742Y-54678429D01*
X124021519Y-54678429D01*
X124021519Y-54798101D01*
X124052393Y-54913326D01*
X124052493Y-54913699D01*
X124069941Y-54943919D01*
X124112328Y-55017335D01*
X124196949Y-55101956D01*
X124287232Y-55154081D01*
X124300585Y-55161790D01*
X124300588Y-55161792D01*
X124416183Y-55192765D01*
X124416185Y-55192765D01*
X124535853Y-55192765D01*
X124535855Y-55192765D01*
X124651450Y-55161792D01*
X124755089Y-55101956D01*
X124839710Y-55017335D01*
X124899546Y-54913696D01*
X124930519Y-54798101D01*
X124930519Y-54678429D01*
X125215319Y-54678429D01*
X125215319Y-54798101D01*
X125246193Y-54913326D01*
X125246293Y-54913699D01*
X125263741Y-54943919D01*
X125306128Y-55017335D01*
X125390749Y-55101956D01*
X125481032Y-55154081D01*
X125494385Y-55161790D01*
X125494388Y-55161792D01*
X125609983Y-55192765D01*
X125609985Y-55192765D01*
X125729653Y-55192765D01*
X125729655Y-55192765D01*
X125845250Y-55161792D01*
X125948889Y-55101956D01*
X126033510Y-55017335D01*
X126093346Y-54913696D01*
X126124319Y-54798101D01*
X126124319Y-54678429D01*
X126093346Y-54562834D01*
X126092535Y-54561430D01*
X126033511Y-54459197D01*
X126033510Y-54459195D01*
X125948889Y-54374574D01*
X125884711Y-54337521D01*
X125845252Y-54314739D01*
X125845254Y-54314739D01*
X125800916Y-54302859D01*
X125729655Y-54283765D01*
X125609983Y-54283765D01*
X125538722Y-54302859D01*
X125494384Y-54314739D01*
X125390751Y-54374572D01*
X125306126Y-54459197D01*
X125246293Y-54562830D01*
X125246292Y-54562834D01*
X125215319Y-54678429D01*
X124930519Y-54678429D01*
X124899546Y-54562834D01*
X124898735Y-54561430D01*
X124839711Y-54459197D01*
X124839710Y-54459195D01*
X124755089Y-54374574D01*
X124690911Y-54337521D01*
X124651452Y-54314739D01*
X124651454Y-54314739D01*
X124607116Y-54302859D01*
X124535855Y-54283765D01*
X124416183Y-54283765D01*
X124344922Y-54302859D01*
X124300584Y-54314739D01*
X124196951Y-54374572D01*
X124112326Y-54459197D01*
X124052493Y-54562830D01*
X124052492Y-54562834D01*
X124021519Y-54678429D01*
X122815742Y-54678429D01*
X122790873Y-54585616D01*
X122786576Y-54578174D01*
X122731038Y-54481979D01*
X122731037Y-54481977D01*
X122646416Y-54397356D01*
X122606956Y-54374574D01*
X122542779Y-54337521D01*
X122542781Y-54337521D01*
X122529126Y-54333862D01*
X122427182Y-54306547D01*
X122307510Y-54306547D01*
X122205565Y-54333862D01*
X122191911Y-54337521D01*
X122088278Y-54397354D01*
X122003653Y-54481979D01*
X121957782Y-54561430D01*
X121912312Y-54602371D01*
X121851462Y-54608766D01*
X121798474Y-54578174D01*
X121786310Y-54561430D01*
X121740438Y-54481979D01*
X121740437Y-54481977D01*
X121655816Y-54397356D01*
X121616356Y-54374574D01*
X121552179Y-54337521D01*
X121552181Y-54337521D01*
X121538526Y-54333862D01*
X121436582Y-54306547D01*
X121316910Y-54306547D01*
X121201315Y-54337520D01*
X121201314Y-54337520D01*
X121201312Y-54337521D01*
X121148499Y-54368013D01*
X121088651Y-54380734D01*
X121032756Y-54355847D01*
X121002163Y-54302859D01*
X121000000Y-54282276D01*
X121000000Y-46300928D01*
X121018907Y-46242737D01*
X121068407Y-46206773D01*
X121129593Y-46206773D01*
X121148493Y-46215188D01*
X121235488Y-46265415D01*
X121351083Y-46296388D01*
X121351085Y-46296388D01*
X121470753Y-46296388D01*
X121470755Y-46296388D01*
X121586350Y-46265415D01*
X121689989Y-46205579D01*
X121774610Y-46120958D01*
X121820483Y-46041504D01*
X121865952Y-46000563D01*
X121926802Y-45994167D01*
X121979790Y-46024760D01*
X121991955Y-46041504D01*
X122031249Y-46109564D01*
X122037828Y-46120958D01*
X122122449Y-46205579D01*
X122206358Y-46254024D01*
X122226085Y-46265413D01*
X122226088Y-46265415D01*
X122341683Y-46296388D01*
X122341685Y-46296388D01*
X122461353Y-46296388D01*
X122461355Y-46296388D01*
X122576950Y-46265415D01*
X122680589Y-46205579D01*
X122765210Y-46120958D01*
X122825046Y-46017319D01*
X122856019Y-45901724D01*
X122856019Y-45782052D01*
X122852967Y-45770661D01*
X124010128Y-45770661D01*
X124010128Y-45890333D01*
X124041101Y-46005928D01*
X124041102Y-46005931D01*
X124100935Y-46109564D01*
X124100937Y-46109567D01*
X124185558Y-46194188D01*
X124269647Y-46242737D01*
X124289194Y-46254022D01*
X124289197Y-46254024D01*
X124404792Y-46284997D01*
X124404794Y-46284997D01*
X124524462Y-46284997D01*
X124524464Y-46284997D01*
X124640059Y-46254024D01*
X124743698Y-46194188D01*
X124828319Y-46109567D01*
X124888155Y-46005928D01*
X124919128Y-45890333D01*
X124919128Y-45770661D01*
X125203928Y-45770661D01*
X125203928Y-45890333D01*
X125234901Y-46005928D01*
X125234902Y-46005931D01*
X125294735Y-46109564D01*
X125294737Y-46109567D01*
X125379358Y-46194188D01*
X125463447Y-46242737D01*
X125482994Y-46254022D01*
X125482997Y-46254024D01*
X125598592Y-46284997D01*
X125598594Y-46284997D01*
X125718262Y-46284997D01*
X125718264Y-46284997D01*
X125833859Y-46254024D01*
X125937498Y-46194188D01*
X126022119Y-46109567D01*
X126081955Y-46005928D01*
X126112928Y-45890333D01*
X126112928Y-45770661D01*
X126081955Y-45655066D01*
X126022119Y-45551427D01*
X125937498Y-45466806D01*
X125919505Y-45456418D01*
X125833861Y-45406971D01*
X125833863Y-45406971D01*
X125820208Y-45403312D01*
X125718264Y-45375997D01*
X125598592Y-45375997D01*
X125496647Y-45403312D01*
X125482993Y-45406971D01*
X125379360Y-45466804D01*
X125294735Y-45551429D01*
X125234902Y-45655062D01*
X125234901Y-45655066D01*
X125203928Y-45770661D01*
X124919128Y-45770661D01*
X124888155Y-45655066D01*
X124828319Y-45551427D01*
X124743698Y-45466806D01*
X124725705Y-45456418D01*
X124640061Y-45406971D01*
X124640063Y-45406971D01*
X124626408Y-45403312D01*
X124524464Y-45375997D01*
X124404792Y-45375997D01*
X124302847Y-45403312D01*
X124289193Y-45406971D01*
X124185560Y-45466804D01*
X124100935Y-45551429D01*
X124041102Y-45655062D01*
X124041101Y-45655066D01*
X124010128Y-45770661D01*
X122852967Y-45770661D01*
X122825046Y-45666457D01*
X122820749Y-45659015D01*
X122765211Y-45562820D01*
X122765210Y-45562818D01*
X122680589Y-45478197D01*
X122660859Y-45466806D01*
X122576952Y-45418362D01*
X122576954Y-45418362D01*
X122534437Y-45406970D01*
X122461355Y-45387388D01*
X122341683Y-45387388D01*
X122268601Y-45406970D01*
X122226084Y-45418362D01*
X122122451Y-45478195D01*
X122037826Y-45562820D01*
X121991955Y-45642271D01*
X121946485Y-45683212D01*
X121885635Y-45689607D01*
X121832647Y-45659015D01*
X121820483Y-45642271D01*
X121774611Y-45562820D01*
X121774610Y-45562818D01*
X121689989Y-45478197D01*
X121670259Y-45466806D01*
X121586352Y-45418362D01*
X121586354Y-45418362D01*
X121543837Y-45406970D01*
X121470755Y-45387388D01*
X121351083Y-45387388D01*
X121278001Y-45406970D01*
X121235487Y-45418361D01*
X121206166Y-45435290D01*
X121148498Y-45468584D01*
X121088651Y-45481305D01*
X121032756Y-45456418D01*
X121002163Y-45403430D01*
X121000000Y-45382847D01*
X121000000Y-40743982D01*
X133974500Y-40743982D01*
X133974500Y-40856018D01*
X133993831Y-40928164D01*
X134003497Y-40964238D01*
X134053301Y-41050500D01*
X134066022Y-41110348D01*
X134053301Y-41149500D01*
X134003497Y-41235761D01*
X133984165Y-41307909D01*
X133974500Y-41343982D01*
X133974500Y-41456018D01*
X133993831Y-41528164D01*
X134003497Y-41564238D01*
X134053301Y-41650500D01*
X134066022Y-41710348D01*
X134053301Y-41749500D01*
X134003497Y-41835761D01*
X133984165Y-41907909D01*
X133974500Y-41943982D01*
X133974500Y-42056018D01*
X133982208Y-42084784D01*
X134003498Y-42164241D01*
X134055506Y-42254319D01*
X134059515Y-42261263D01*
X134138737Y-42340485D01*
X134138739Y-42340486D01*
X134235759Y-42396501D01*
X134235757Y-42396501D01*
X134235761Y-42396502D01*
X134235763Y-42396503D01*
X134343982Y-42425500D01*
X134343984Y-42425500D01*
X134456016Y-42425500D01*
X134456018Y-42425500D01*
X134564237Y-42396503D01*
X134564239Y-42396501D01*
X134564241Y-42396501D01*
X134593064Y-42379859D01*
X134661263Y-42340485D01*
X134679998Y-42321749D01*
X134734513Y-42293974D01*
X134794945Y-42303545D01*
X134820000Y-42321748D01*
X134838737Y-42340485D01*
X134838739Y-42340486D01*
X134935759Y-42396501D01*
X134935757Y-42396501D01*
X134935761Y-42396502D01*
X134935763Y-42396503D01*
X135043982Y-42425500D01*
X135043984Y-42425500D01*
X135156016Y-42425500D01*
X135156018Y-42425500D01*
X135264237Y-42396503D01*
X135264239Y-42396501D01*
X135264241Y-42396501D01*
X135293064Y-42379859D01*
X135361263Y-42340485D01*
X135440485Y-42261263D01*
X135444765Y-42253850D01*
X137429500Y-42253850D01*
X137429500Y-42346138D01*
X137434476Y-42364709D01*
X137453387Y-42435286D01*
X137491036Y-42500495D01*
X137503758Y-42560343D01*
X137491037Y-42599495D01*
X137453386Y-42664707D01*
X137437462Y-42724138D01*
X137429500Y-42753853D01*
X137429500Y-42846141D01*
X137450564Y-42924756D01*
X137453387Y-42935289D01*
X137491036Y-43000498D01*
X137503758Y-43060346D01*
X137491037Y-43099498D01*
X137453386Y-43164710D01*
X137437462Y-43224141D01*
X137429500Y-43253856D01*
X137429500Y-43346144D01*
X137453386Y-43435288D01*
X137499531Y-43515212D01*
X137564788Y-43580469D01*
X137644712Y-43626614D01*
X137733856Y-43650500D01*
X137733858Y-43650500D01*
X137826142Y-43650500D01*
X137826144Y-43650500D01*
X137915288Y-43626614D01*
X137995212Y-43580469D01*
X138060469Y-43515212D01*
X138106614Y-43435288D01*
X138130500Y-43346144D01*
X138130500Y-43253856D01*
X138106614Y-43164712D01*
X138106612Y-43164709D01*
X138106612Y-43164707D01*
X138068963Y-43099498D01*
X138056241Y-43039650D01*
X138068963Y-43000497D01*
X138106614Y-42935285D01*
X138130500Y-42846141D01*
X138130500Y-42753853D01*
X138106614Y-42664709D01*
X138106612Y-42664706D01*
X138106612Y-42664704D01*
X138068963Y-42599495D01*
X138056241Y-42539647D01*
X138068963Y-42500494D01*
X138106614Y-42435282D01*
X138130500Y-42346138D01*
X138130500Y-42253850D01*
X138106614Y-42164706D01*
X138060469Y-42084782D01*
X137995212Y-42019525D01*
X137915288Y-41973380D01*
X137826144Y-41949494D01*
X137733856Y-41949494D01*
X137644712Y-41973380D01*
X137644711Y-41973380D01*
X137644709Y-41973381D01*
X137564790Y-42019523D01*
X137499529Y-42084784D01*
X137453387Y-42164703D01*
X137453386Y-42164705D01*
X137453386Y-42164706D01*
X137429500Y-42253850D01*
X135444765Y-42253850D01*
X135491221Y-42173386D01*
X135496501Y-42164241D01*
X135496501Y-42164239D01*
X135496503Y-42164237D01*
X135525500Y-42056018D01*
X135525500Y-41943982D01*
X135496503Y-41835763D01*
X135446698Y-41749499D01*
X135433977Y-41689652D01*
X135446699Y-41650500D01*
X135496503Y-41564237D01*
X135525500Y-41456018D01*
X135525500Y-41343982D01*
X135496503Y-41235763D01*
X135446698Y-41149499D01*
X135433977Y-41089652D01*
X135446699Y-41050500D01*
X135496503Y-40964237D01*
X135525500Y-40856018D01*
X135525500Y-40743982D01*
X135496503Y-40635763D01*
X135496501Y-40635760D01*
X135496501Y-40635758D01*
X135440486Y-40538739D01*
X135440485Y-40538737D01*
X135361263Y-40459515D01*
X135361260Y-40459513D01*
X135264240Y-40403498D01*
X135264242Y-40403498D01*
X135222251Y-40392247D01*
X135156018Y-40374500D01*
X135043982Y-40374500D01*
X134977748Y-40392247D01*
X134935758Y-40403498D01*
X134838736Y-40459514D01*
X134820002Y-40478249D01*
X134765485Y-40506025D01*
X134705053Y-40496453D01*
X134679998Y-40478249D01*
X134661263Y-40459514D01*
X134564240Y-40403498D01*
X134564242Y-40403498D01*
X134522251Y-40392247D01*
X134456018Y-40374500D01*
X134343982Y-40374500D01*
X134277748Y-40392247D01*
X134235758Y-40403498D01*
X134138739Y-40459513D01*
X134059513Y-40538739D01*
X134003498Y-40635758D01*
X134003497Y-40635763D01*
X133974500Y-40743982D01*
X121000000Y-40743982D01*
X121000000Y-37541110D01*
X121018907Y-37482919D01*
X121029121Y-37470982D01*
X121365735Y-37135563D01*
X121470876Y-37030795D01*
X121525441Y-37003115D01*
X121541102Y-37001925D01*
X128975857Y-37028383D01*
G37*
%TD.AperFunction*%
%TD*%
%TA.AperFunction,Conductor*%
%TO.N,/MCU_DIO18*%
G36*
X131068658Y-62624831D02*
G01*
X131274026Y-62768755D01*
X131278834Y-62776309D01*
X131277081Y-62784773D01*
X131202030Y-62898697D01*
X131198697Y-62902030D01*
X131084773Y-62977081D01*
X131075979Y-62978771D01*
X131068755Y-62974026D01*
X130924831Y-62768658D01*
X130922890Y-62759918D01*
X130926138Y-62753674D01*
X131053673Y-62626139D01*
X131061945Y-62622713D01*
X131068658Y-62624831D01*
G37*
%TD.AperFunction*%
%TD*%
%TA.AperFunction,Conductor*%
%TO.N,/MCU_DIO18*%
G36*
X130535983Y-42526973D02*
G01*
X130543395Y-42531997D01*
X130545148Y-42540460D01*
X130501702Y-42787445D01*
X130496894Y-42794999D01*
X130490179Y-42797118D01*
X130309821Y-42797118D01*
X130301548Y-42793691D01*
X130298298Y-42787445D01*
X130254851Y-42540460D01*
X130256793Y-42531718D01*
X130264014Y-42526973D01*
X130397647Y-42499484D01*
X130402353Y-42499484D01*
X130535983Y-42526973D01*
G37*
%TD.AperFunction*%
%TD*%
%TA.AperFunction,Conductor*%
%TO.N,/MCU_DIO19*%
G36*
X130035983Y-42526973D02*
G01*
X130043395Y-42531997D01*
X130045148Y-42540460D01*
X130001702Y-42787445D01*
X129996894Y-42794999D01*
X129990179Y-42797118D01*
X129809821Y-42797118D01*
X129801548Y-42793691D01*
X129798298Y-42787445D01*
X129754851Y-42540460D01*
X129756793Y-42531718D01*
X129764014Y-42526973D01*
X129897647Y-42499484D01*
X129902353Y-42499484D01*
X130035983Y-42526973D01*
G37*
%TD.AperFunction*%
%TD*%
%TA.AperFunction,Conductor*%
%TO.N,/MCU_DIO19*%
G36*
X130768658Y-63124831D02*
G01*
X130974026Y-63268755D01*
X130978834Y-63276309D01*
X130977081Y-63284773D01*
X130902030Y-63398697D01*
X130898697Y-63402030D01*
X130784773Y-63477081D01*
X130775979Y-63478771D01*
X130768755Y-63474026D01*
X130624831Y-63268658D01*
X130622890Y-63259918D01*
X130626138Y-63253674D01*
X130753673Y-63126139D01*
X130761945Y-63122713D01*
X130768658Y-63124831D01*
G37*
%TD.AperFunction*%
%TD*%
%TA.AperFunction,Conductor*%
%TO.N,/LED_CATHODE0*%
G36*
X140397698Y-56955829D02*
G01*
X140401065Y-56962924D01*
X140421535Y-57165118D01*
X140418959Y-57173694D01*
X140412267Y-57177753D01*
X140302372Y-57200508D01*
X140297628Y-57200508D01*
X140187732Y-57177753D01*
X140180325Y-57172720D01*
X140178464Y-57165119D01*
X140198935Y-56962923D01*
X140203177Y-56955038D01*
X140210575Y-56952402D01*
X140389425Y-56952402D01*
X140397698Y-56955829D01*
G37*
%TD.AperFunction*%
%TD*%
%TA.AperFunction,Conductor*%
%TO.N,/LED_CATHODE0*%
G36*
X147903824Y-56360896D02*
G01*
X148040051Y-56472075D01*
X148061272Y-56489395D01*
X148065515Y-56497281D01*
X148063653Y-56504883D01*
X148002037Y-56598682D01*
X147998682Y-56602037D01*
X147904883Y-56663653D01*
X147896087Y-56665331D01*
X147889395Y-56661272D01*
X147841051Y-56602037D01*
X147760896Y-56503824D01*
X147758320Y-56495250D01*
X147761687Y-56488156D01*
X147888156Y-56361687D01*
X147896428Y-56358261D01*
X147903824Y-56360896D01*
G37*
%TD.AperFunction*%
%TD*%
%TA.AperFunction,Conductor*%
%TO.N,/LED_CATHODE1*%
G36*
X145412268Y-58422247D02*
G01*
X145419674Y-58427279D01*
X145421535Y-58434881D01*
X145401065Y-58637076D01*
X145396823Y-58644962D01*
X145389425Y-58647598D01*
X145210575Y-58647598D01*
X145202302Y-58644171D01*
X145198935Y-58637077D01*
X145194993Y-58598146D01*
X145178464Y-58434880D01*
X145181040Y-58426305D01*
X145187729Y-58422247D01*
X145297629Y-58399491D01*
X145302371Y-58399491D01*
X145412268Y-58422247D01*
G37*
%TD.AperFunction*%
%TD*%
%TA.AperFunction,Conductor*%
%TO.N,/LED_CATHODE1*%
G36*
X140537077Y-57498934D02*
G01*
X140544962Y-57503176D01*
X140547598Y-57510574D01*
X140547598Y-57689425D01*
X140544171Y-57697698D01*
X140537076Y-57701065D01*
X140334881Y-57721535D01*
X140326305Y-57718959D01*
X140322247Y-57712268D01*
X140299491Y-57602371D01*
X140299491Y-57597628D01*
X140322247Y-57487729D01*
X140327279Y-57480325D01*
X140334879Y-57478464D01*
X140537077Y-57498934D01*
G37*
%TD.AperFunction*%
%TD*%
%TA.AperFunction,Conductor*%
%TO.N,/LED_CATHODE2*%
G36*
X147904884Y-58336347D02*
G01*
X147998685Y-58397965D01*
X148002038Y-58401318D01*
X148063654Y-58495117D01*
X148065332Y-58503913D01*
X148061273Y-58510605D01*
X147903827Y-58639103D01*
X147895251Y-58641680D01*
X147888156Y-58638312D01*
X147761689Y-58511845D01*
X147758262Y-58503572D01*
X147760896Y-58496177D01*
X147889397Y-58338727D01*
X147897282Y-58334485D01*
X147904884Y-58336347D01*
G37*
%TD.AperFunction*%
%TD*%
%TA.AperFunction,Conductor*%
%TO.N,/LED_CATHODE2*%
G36*
X140412268Y-58022247D02*
G01*
X140419674Y-58027279D01*
X140421535Y-58034881D01*
X140401065Y-58237076D01*
X140396823Y-58244962D01*
X140389425Y-58247598D01*
X140210575Y-58247598D01*
X140202302Y-58244171D01*
X140198935Y-58237077D01*
X140194993Y-58198146D01*
X140178464Y-58034880D01*
X140181040Y-58026305D01*
X140187729Y-58022247D01*
X140297629Y-57999491D01*
X140302371Y-57999491D01*
X140412268Y-58022247D01*
G37*
%TD.AperFunction*%
%TD*%
M02*
