%TF.GenerationSoftware,KiCad,Pcbnew,9.0.6*%
%TF.CreationDate,2026-02-05T15:03:14-05:00*%
%TF.ProjectId,health_monitor,6865616c-7468-45f6-9d6f-6e69746f722e,rev?*%
%TF.SameCoordinates,Original*%
%TF.FileFunction,Copper,L4,Bot*%
%TF.FilePolarity,Positive*%
%FSLAX46Y46*%
G04 Gerber Fmt 4.6, Leading zero omitted, Abs format (unit mm)*
G04 Created by KiCad (PCBNEW 9.0.6) date 2026-02-05 15:03:14*
%MOMM*%
%LPD*%
G01*
G04 APERTURE LIST*
G04 Aperture macros list*
%AMRoundRect*
0 Rectangle with rounded corners*
0 $1 Rounding radius*
0 $2 $3 $4 $5 $6 $7 $8 $9 X,Y pos of 4 corners*
0 Add a 4 corners polygon primitive as box body*
4,1,4,$2,$3,$4,$5,$6,$7,$8,$9,$2,$3,0*
0 Add four circle primitives for the rounded corners*
1,1,$1+$1,$2,$3*
1,1,$1+$1,$4,$5*
1,1,$1+$1,$6,$7*
1,1,$1+$1,$8,$9*
0 Add four rect primitives between the rounded corners*
20,1,$1+$1,$2,$3,$4,$5,0*
20,1,$1+$1,$4,$5,$6,$7,0*
20,1,$1+$1,$6,$7,$8,$9,0*
20,1,$1+$1,$8,$9,$2,$3,0*%
G04 Aperture macros list end*
%TA.AperFunction,Conductor*%
%ADD10C,0.200000*%
%TD*%
%TA.AperFunction,ComponentPad*%
%ADD11R,1.700000X1.700000*%
%TD*%
%TA.AperFunction,ComponentPad*%
%ADD12C,1.700000*%
%TD*%
%TA.AperFunction,ComponentPad*%
%ADD13C,0.499999*%
%TD*%
%TA.AperFunction,SMDPad,CuDef*%
%ADD14RoundRect,0.140000X-0.140000X-0.170000X0.140000X-0.170000X0.140000X0.170000X-0.140000X0.170000X0*%
%TD*%
%TA.AperFunction,SMDPad,CuDef*%
%ADD15C,0.254000*%
%TD*%
%TA.AperFunction,SMDPad,CuDef*%
%ADD16RoundRect,0.100000X0.130000X0.100000X-0.130000X0.100000X-0.130000X-0.100000X0.130000X-0.100000X0*%
%TD*%
%TA.AperFunction,SMDPad,CuDef*%
%ADD17R,0.508000X0.508000*%
%TD*%
%TA.AperFunction,SMDPad,CuDef*%
%ADD18RoundRect,0.075000X-0.125000X-0.075000X0.125000X-0.075000X0.125000X0.075000X-0.125000X0.075000X0*%
%TD*%
%TA.AperFunction,ViaPad*%
%ADD19C,0.600000*%
%TD*%
%TA.AperFunction,ViaPad*%
%ADD20C,0.450000*%
%TD*%
%TA.AperFunction,ViaPad*%
%ADD21C,0.400000*%
%TD*%
%TA.AperFunction,ViaPad*%
%ADD22C,0.300000*%
%TD*%
%TA.AperFunction,ViaPad*%
%ADD23C,0.500000*%
%TD*%
%TA.AperFunction,ViaPad*%
%ADD24C,0.250000*%
%TD*%
%TA.AperFunction,Conductor*%
%ADD25C,0.400000*%
%TD*%
G04 APERTURE END LIST*
%TO.N,/V_{A}*%
D10*
X140100000Y-51700000D02*
X143700000Y-51700000D01*
X143700000Y-53600000D01*
X140100000Y-53600000D01*
X140100000Y-51700000D01*
%TA.AperFunction,Conductor*%
G36*
X140100000Y-51700000D02*
G01*
X143700000Y-51700000D01*
X143700000Y-53600000D01*
X140100000Y-53600000D01*
X140100000Y-51700000D01*
G37*
%TD.AperFunction*%
%TO.N,GNDREF*%
X145500000Y-53600000D02*
X145500000Y-55600000D01*
X144800000Y-56200000D01*
X144800000Y-59200000D01*
X144200000Y-59800000D01*
X143100000Y-58600000D01*
X142300000Y-57600000D01*
X142300000Y-57500000D01*
X143000000Y-57500000D01*
X143500000Y-58100000D01*
X143500000Y-58700000D01*
X143700000Y-58900000D01*
X144300000Y-58900000D01*
X144500000Y-58700000D01*
X144500000Y-58000000D01*
X143300000Y-56800000D01*
X141100000Y-56800000D01*
X141100000Y-54700000D01*
X141300000Y-54400000D01*
X143500000Y-54400000D01*
X144500000Y-53400000D01*
X145300000Y-53400000D01*
X145500000Y-53600000D01*
%TA.AperFunction,Conductor*%
G36*
X145500000Y-53600000D02*
G01*
X145500000Y-55600000D01*
X144800000Y-56200000D01*
X144800000Y-59200000D01*
X144200000Y-59800000D01*
X143100000Y-58600000D01*
X142300000Y-57600000D01*
X142300000Y-57500000D01*
X143000000Y-57500000D01*
X143500000Y-58100000D01*
X143500000Y-58700000D01*
X143700000Y-58900000D01*
X144300000Y-58900000D01*
X144500000Y-58700000D01*
X144500000Y-58000000D01*
X143300000Y-56800000D01*
X141100000Y-56800000D01*
X141100000Y-54700000D01*
X141300000Y-54400000D01*
X143500000Y-54400000D01*
X144500000Y-53400000D01*
X145300000Y-53400000D01*
X145500000Y-53600000D01*
G37*
%TD.AperFunction*%
%TO.N,/V_{LED}*%
X133500000Y-40000000D02*
X135900000Y-40000000D01*
X135900000Y-42800000D01*
X133500000Y-42800000D01*
X133500000Y-40000000D01*
%TA.AperFunction,Conductor*%
G36*
X133500000Y-40000000D02*
G01*
X135900000Y-40000000D01*
X135900000Y-42800000D01*
X133500000Y-42800000D01*
X133500000Y-40000000D01*
G37*
%TD.AperFunction*%
%TD*%
D11*
%TO.P,J3,1,Pin_1*%
%TO.N,/CC2674R10/JTAG_{TCKC}*%
X122300000Y-58660000D03*
D12*
%TO.P,J3,2,Pin_2*%
%TO.N,/CC2674R10/JTAG_{TMSC}*%
X122300000Y-61200000D03*
%TO.P,J3,3,Pin_3*%
%TO.N,/MCU_DIO16*%
X122300000Y-63740000D03*
%TO.P,J3,4,Pin_4*%
%TO.N,/MCU_DIO17*%
X122300000Y-66280000D03*
%TO.P,J3,5,Pin_5*%
%TO.N,/CC2674R10/RESET*%
X122300000Y-68820000D03*
%TD*%
D13*
%TO.P,U4,V4*%
%TO.N,GNDREF*%
X138000000Y-47100000D03*
%TO.P,U4,V1*%
X136900000Y-48200000D03*
%TO.P,U4,V2*%
X138000000Y-49300000D03*
%TO.P,U4,V3*%
X138000000Y-48200000D03*
%TO.P,U4,V5*%
X139100000Y-48200000D03*
%TD*%
D11*
%TO.P,J2,1,Pin_1*%
%TO.N,/Power Management ICs/BAT+*%
X130125000Y-37800000D03*
D12*
%TO.P,J2,2,Pin_2*%
%TO.N,GNDREF*%
X132665000Y-37800000D03*
%TD*%
D14*
%TO.P,C16,1*%
%TO.N,GNDREF*%
X145020000Y-54200000D03*
%TO.P,C16,2*%
%TO.N,/V_{LED}*%
X145980000Y-54200000D03*
%TD*%
D15*
%TO.P,U1,A1,VLED*%
%TO.N,/V_{LED}*%
X140300000Y-58400000D03*
%TO.P,U1,A2,SCLK*%
%TO.N,/MCU_DIO7*%
X140700000Y-58400000D03*
%TO.P,U1,A3,SDO*%
%TO.N,/MCU_DIO6*%
X141100000Y-58400000D03*
%TO.P,U1,A4,SDI*%
%TO.N,/MCU_DIO5*%
X141500000Y-58400000D03*
%TO.P,U1,A5,CSB*%
%TO.N,/MCU_DIO4*%
X141900000Y-58400000D03*
%TO.P,U1,B1,LED3_DRV*%
%TO.N,/LED_CATHODE2*%
X140300000Y-58000000D03*
%TO.P,U1,B2,\u002AINT*%
%TO.N,/MCU_DIO3*%
X140700000Y-58000000D03*
%TO.P,U1,B3,GPIO1*%
%TO.N,/MAX86140 AFE/GPIO1*%
X141100000Y-58000000D03*
%TO.P,U1,B4,GPIO2*%
%TO.N,/MAX86140 AFE/GPIO2*%
X141500000Y-58000000D03*
%TO.P,U1,B5,VREF*%
%TO.N,Net-(U1-VREF)*%
X141900000Y-58000000D03*
%TO.P,U1,C1,LED2_DRV*%
%TO.N,/LED_CATHODE1*%
X140300000Y-57600000D03*
%TO.P,U1,C2,VDD_DIG*%
%TO.N,/V_{A}*%
X140700000Y-57600000D03*
%TO.P,U1,C3,GND_DIG*%
%TO.N,GNDREF*%
X141100000Y-57600000D03*
%TO.P,U1,C4,GND_ANA*%
X141500000Y-57600000D03*
%TO.P,U1,C5,PD_GND*%
X141900000Y-57600000D03*
%TO.P,U1,D1,LED1_DRV*%
%TO.N,/LED_CATHODE0*%
X140300000Y-57200000D03*
%TO.P,U1,D2,VDD_ANA*%
%TO.N,/V_{A}*%
X140700000Y-57200000D03*
%TO.P,U1,D3,PGND*%
%TO.N,GNDREF*%
X141100000Y-57200000D03*
%TO.P,U1,D4,N.C.*%
%TO.N,unconnected-(U1-N.C.-PadD4)*%
X141500000Y-57200000D03*
%TO.P,U1,D5,PD1_IN*%
%TO.N,/PD1*%
X141900000Y-57200000D03*
%TD*%
D16*
%TO.P,C15,1*%
%TO.N,GNDREF*%
X143220000Y-59600000D03*
%TO.P,C15,2*%
%TO.N,Net-(U1-VREF)*%
X142580000Y-59600000D03*
%TD*%
D17*
%TO.P,SENSOR1,1,GC*%
%TO.N,/LED_CATHODE0*%
X148000001Y-56599999D03*
%TO.P,SENSOR1,2,GA*%
%TO.N,/V_{LED}*%
X146690001Y-56599999D03*
%TO.P,SENSOR1,3,RA*%
X145309999Y-56599999D03*
%TO.P,SENSOR1,4,PA*%
%TO.N,GNDREF*%
X143999999Y-56599999D03*
%TO.P,SENSOR1,5,PC*%
%TO.N,/PD1*%
X143999999Y-58400001D03*
%TO.P,SENSOR1,6,RC*%
%TO.N,/LED_CATHODE1*%
X145309999Y-58400001D03*
%TO.P,SENSOR1,7,IA*%
%TO.N,/V_{LED}*%
X146690001Y-58400001D03*
%TO.P,SENSOR1,8,IC*%
%TO.N,/LED_CATHODE2*%
X148000001Y-58400001D03*
%TD*%
D18*
%TO.P,C17,1*%
%TO.N,/V_{A}*%
X140650000Y-56200000D03*
%TO.P,C17,2*%
%TO.N,GNDREF*%
X141150000Y-56200000D03*
%TD*%
D14*
%TO.P,C18,1*%
%TO.N,/V_{A}*%
X140520000Y-55300000D03*
%TO.P,C18,2*%
%TO.N,GNDREF*%
X141480000Y-55300000D03*
%TD*%
D19*
%TO.N,GNDREF*%
X143000000Y-70700000D03*
X142800000Y-56400000D03*
D20*
X140700000Y-51200000D03*
X139200000Y-41900000D03*
D19*
X128900000Y-39200000D03*
X144000000Y-54800000D03*
X139700000Y-55200000D03*
X132800000Y-54900000D03*
X122900000Y-52600000D03*
X141700000Y-56500000D03*
X137400000Y-54900000D03*
X135600000Y-50100000D03*
D20*
X139000000Y-43300000D03*
D19*
X139800000Y-60500000D03*
X143100000Y-57900000D03*
X121500000Y-48200000D03*
D20*
X136600000Y-43100000D03*
D21*
X141400000Y-66000000D03*
D20*
X136600000Y-40700000D03*
X136400000Y-45200000D03*
D19*
X144400000Y-41500000D03*
X132700000Y-68700000D03*
X132800000Y-56200000D03*
D20*
X136600000Y-40100000D03*
X142000000Y-44500000D03*
D21*
X142000000Y-63000000D03*
D19*
X145300000Y-66700000D03*
X129500000Y-63200000D03*
X133800000Y-55600000D03*
X128200000Y-71200000D03*
D20*
X143200000Y-50900000D03*
D19*
X129500000Y-58700000D03*
X137600000Y-55900000D03*
D20*
X140600000Y-47200000D03*
D19*
X142100000Y-54800000D03*
X139600000Y-56500000D03*
X122200000Y-42100000D03*
X143000000Y-40700000D03*
X142700000Y-66700000D03*
X140200000Y-38200000D03*
D20*
X135700000Y-44400000D03*
X136600000Y-42000000D03*
D19*
X127900000Y-40400000D03*
D20*
X136600000Y-44300000D03*
D19*
X126900000Y-42300000D03*
D20*
X138600000Y-41700000D03*
X136100000Y-46200000D03*
D19*
X138600000Y-71000000D03*
X122000000Y-74200000D03*
X141800000Y-69300000D03*
X140200000Y-40500000D03*
D22*
X130400000Y-42000000D03*
D20*
X140000000Y-44500000D03*
D19*
X131800000Y-67900000D03*
D20*
X138900000Y-45600000D03*
D19*
X132200000Y-74200000D03*
X134300000Y-51800000D03*
X130400000Y-67600000D03*
X121500000Y-52300000D03*
X122900000Y-48100000D03*
X139700000Y-58500000D03*
X140800000Y-68100000D03*
X132800000Y-43900000D03*
D20*
X139300000Y-45100000D03*
X139200000Y-42600000D03*
X141400000Y-49100000D03*
D19*
X123400000Y-41000000D03*
X130500000Y-64100000D03*
X134500000Y-49200000D03*
X138100000Y-70400000D03*
X143500000Y-63000000D03*
D20*
X142900000Y-44500000D03*
D19*
X144400000Y-42800000D03*
X126300000Y-74200000D03*
X141300000Y-63500000D03*
X144800000Y-74000000D03*
X144100000Y-66700000D03*
X124700000Y-42700000D03*
X140600000Y-66100000D03*
D23*
X125403300Y-38750189D03*
D19*
X132100000Y-41000000D03*
X131300000Y-59400000D03*
X131000000Y-57900000D03*
D20*
X143100000Y-48000000D03*
D19*
X128000000Y-44200000D03*
D20*
X136600000Y-39600000D03*
D19*
X136300000Y-53100000D03*
X139400000Y-71500000D03*
D20*
X137900000Y-41700000D03*
X141100000Y-44500000D03*
D19*
X143400000Y-61200000D03*
X122000000Y-71000000D03*
%TO.N,Net-(MCU1A-VDDR)*%
X139610000Y-69490000D03*
X135500000Y-71200000D03*
X140160000Y-70040000D03*
D20*
%TO.N,/V_{LED}*%
X134400000Y-41400000D03*
X135100000Y-40800000D03*
X134400000Y-42000000D03*
X135100000Y-42000000D03*
X135100000Y-41400000D03*
X134400000Y-40800000D03*
%TO.N,/V_{A}*%
X141500000Y-53000000D03*
X141600000Y-52000000D03*
X143100000Y-52100000D03*
X142400000Y-52600000D03*
X143100000Y-53000000D03*
D19*
%TO.N,/V_{2.0}*%
X127900000Y-64800000D03*
X126400000Y-59400000D03*
X127900000Y-65600000D03*
X134200000Y-69700000D03*
X127600000Y-59400000D03*
X126400000Y-58200000D03*
X127600000Y-58200000D03*
X135100000Y-69700000D03*
X127000000Y-58800000D03*
D22*
%TO.N,/Power Management ICs/V_{BAT}*%
X137780000Y-43300000D03*
X133600000Y-44700000D03*
X137780000Y-42799997D03*
X133600000Y-45300000D03*
X133600000Y-44000000D03*
X137780000Y-42299994D03*
D24*
%TO.N,/MCU_DIO7*%
X140700000Y-59400000D03*
D22*
%TO.N,/MCU_DIO18*%
X131200000Y-62900000D03*
X130400000Y-42500000D03*
D24*
%TO.N,/MCU_DIO3*%
X140700000Y-58000000D03*
%TO.N,/MCU_DIO5*%
X141500000Y-59400000D03*
D22*
%TO.N,/MCU_DIO19*%
X130900000Y-63400000D03*
X129900000Y-42500000D03*
D24*
%TO.N,/MCU_DIO4*%
X141900000Y-59400000D03*
%TO.N,/MCU_DIO6*%
X141100000Y-59400000D03*
%TO.N,/LED_CATHODE0*%
X140300000Y-57200000D03*
X148000000Y-56600000D03*
%TO.N,/LED_CATHODE1*%
X145300000Y-58400000D03*
X140300000Y-57600000D03*
%TO.N,/LED_CATHODE2*%
X148000001Y-58400001D03*
X140300000Y-58000000D03*
%TD*%
D10*
%TO.N,GNDREF*%
X141500000Y-57600000D02*
X141100000Y-57600000D01*
X141900000Y-57600000D02*
X141500000Y-57600000D01*
X143910000Y-59600000D02*
X144554999Y-58955001D01*
X141100000Y-56600000D02*
X141500000Y-56200000D01*
X141100000Y-57200000D02*
X141100000Y-56600000D01*
X144554999Y-58955001D02*
X144554999Y-57904999D01*
X141100000Y-57200000D02*
X141100000Y-57600000D01*
X142800000Y-57600000D02*
X143100000Y-57900000D01*
X144554999Y-57904999D02*
X143250000Y-56600000D01*
X141900000Y-57600000D02*
X142800000Y-57600000D01*
X143220000Y-59600000D02*
X143910000Y-59600000D01*
%TO.N,Net-(U1-VREF)*%
X141900000Y-58000000D02*
X142100000Y-58000000D01*
X142600000Y-58500000D02*
X142600000Y-59580000D01*
X142100000Y-58000000D02*
X142600000Y-58500000D01*
X142600000Y-59580000D02*
X142580000Y-59600000D01*
D25*
%TO.N,/V_{LED}*%
X146000000Y-56600000D02*
X146690001Y-56599999D01*
X146690001Y-58400001D02*
X146690001Y-56599999D01*
D10*
X146690001Y-58400001D02*
X144889002Y-60201000D01*
D25*
X143159298Y-43874000D02*
X146000000Y-46714702D01*
D10*
X140300000Y-59600000D02*
X140300000Y-58400000D01*
D25*
X145310000Y-56600000D02*
X145309999Y-56599999D01*
X137914702Y-40800000D02*
X139508636Y-40800000D01*
X135726000Y-41374000D02*
X137340702Y-41374000D01*
X139508636Y-40800000D02*
X142582636Y-43874000D01*
X135100000Y-42000000D02*
X135726000Y-41374000D01*
X146000000Y-56600000D02*
X145310000Y-56600000D01*
D10*
X144889002Y-60201000D02*
X140901000Y-60201000D01*
D25*
X137340702Y-41374000D02*
X137914702Y-40800000D01*
D10*
X140800000Y-60100000D02*
X140450000Y-59750000D01*
D25*
X142582636Y-43874000D02*
X143159298Y-43874000D01*
X146000000Y-46714702D02*
X146000000Y-56600000D01*
D10*
X140450000Y-59750000D02*
X140300000Y-59600000D01*
X140901000Y-60201000D02*
X140800000Y-60100000D01*
%TO.N,/V_{A}*%
X140700000Y-57600000D02*
X140700000Y-53850000D01*
X140700000Y-53850000D02*
X141900000Y-52650000D01*
%TO.N,/MCU_DIO7*%
X140700000Y-58400000D02*
X140700000Y-59400000D01*
%TO.N,/MCU_DIO5*%
X141500000Y-59400000D02*
X141500000Y-59399999D01*
X141500000Y-58400000D02*
X141500000Y-59400000D01*
%TO.N,/MCU_DIO4*%
X141900000Y-59400000D02*
X141900000Y-58400000D01*
%TO.N,/MCU_DIO6*%
X141100000Y-58400000D02*
X141100000Y-59400000D01*
%TO.N,/PD1*%
X141900000Y-57200000D02*
X143200000Y-57200000D01*
X143200000Y-57200000D02*
X144000000Y-58000000D01*
X143999999Y-58000001D02*
X143999999Y-58400001D01*
X144000000Y-58000000D02*
X143999999Y-58000001D01*
%TD*%
%TA.AperFunction,Conductor*%
%TO.N,GNDREF*%
G36*
X141152459Y-57478438D02*
G01*
X141341120Y-57498869D01*
X141348976Y-57503167D01*
X141351560Y-57510501D01*
X141351560Y-57689498D01*
X141348133Y-57697771D01*
X141341120Y-57701130D01*
X141135339Y-57723415D01*
X141126745Y-57720899D01*
X141122622Y-57714155D01*
X141099490Y-57602367D01*
X141099490Y-57597632D01*
X141122623Y-57485843D01*
X141127654Y-57478438D01*
X141135339Y-57476584D01*
X141152459Y-57478438D01*
G37*
%TD.AperFunction*%
%TD*%
%TA.AperFunction,Conductor*%
%TO.N,GNDREF*%
G36*
X141473254Y-57479100D02*
G01*
X141477377Y-57485845D01*
X141500509Y-57597629D01*
X141500509Y-57602371D01*
X141477377Y-57714154D01*
X141472345Y-57721561D01*
X141464660Y-57723415D01*
X141258880Y-57701130D01*
X141251024Y-57696832D01*
X141248440Y-57689498D01*
X141248440Y-57510501D01*
X141251867Y-57502228D01*
X141258878Y-57498869D01*
X141464660Y-57476584D01*
X141473254Y-57479100D01*
G37*
%TD.AperFunction*%
%TD*%
%TA.AperFunction,Conductor*%
%TO.N,GNDREF*%
G36*
X141873254Y-57479100D02*
G01*
X141877377Y-57485845D01*
X141900509Y-57597629D01*
X141900509Y-57602371D01*
X141877377Y-57714154D01*
X141872345Y-57721561D01*
X141864660Y-57723415D01*
X141658880Y-57701130D01*
X141651024Y-57696832D01*
X141648440Y-57689498D01*
X141648440Y-57510501D01*
X141651867Y-57502228D01*
X141658878Y-57498869D01*
X141864660Y-57476584D01*
X141873254Y-57479100D01*
G37*
%TD.AperFunction*%
%TD*%
%TA.AperFunction,Conductor*%
%TO.N,GNDREF*%
G36*
X141552459Y-57478438D02*
G01*
X141741120Y-57498869D01*
X141748976Y-57503167D01*
X141751560Y-57510501D01*
X141751560Y-57689498D01*
X141748133Y-57697771D01*
X141741120Y-57701130D01*
X141535339Y-57723415D01*
X141526745Y-57720899D01*
X141522622Y-57714155D01*
X141499490Y-57602367D01*
X141499490Y-57597632D01*
X141522623Y-57485843D01*
X141527654Y-57478438D01*
X141535339Y-57476584D01*
X141552459Y-57478438D01*
G37*
%TD.AperFunction*%
%TD*%
%TA.AperFunction,Conductor*%
%TO.N,GNDREF*%
G36*
X141197772Y-56951867D02*
G01*
X141201131Y-56958880D01*
X141223415Y-57164660D01*
X141220899Y-57173254D01*
X141214154Y-57177377D01*
X141102371Y-57200509D01*
X141097629Y-57200509D01*
X140985845Y-57177377D01*
X140978438Y-57172345D01*
X140976584Y-57164660D01*
X140998869Y-56958880D01*
X141003167Y-56951024D01*
X141010501Y-56948440D01*
X141189499Y-56948440D01*
X141197772Y-56951867D01*
G37*
%TD.AperFunction*%
%TD*%
%TA.AperFunction,Conductor*%
%TO.N,GNDREF*%
G36*
X141214155Y-57222622D02*
G01*
X141221561Y-57227654D01*
X141223415Y-57235339D01*
X141201131Y-57441120D01*
X141196833Y-57448976D01*
X141189499Y-57451560D01*
X141010501Y-57451560D01*
X141002228Y-57448133D01*
X140998869Y-57441120D01*
X140976584Y-57235339D01*
X140979100Y-57226745D01*
X140985842Y-57222623D01*
X141097632Y-57199490D01*
X141102368Y-57199490D01*
X141214155Y-57222622D01*
G37*
%TD.AperFunction*%
%TD*%
%TA.AperFunction,Conductor*%
%TO.N,GNDREF*%
G36*
X141197772Y-57351867D02*
G01*
X141201131Y-57358880D01*
X141223415Y-57564660D01*
X141220899Y-57573254D01*
X141214154Y-57577377D01*
X141102371Y-57600509D01*
X141097629Y-57600509D01*
X140985845Y-57577377D01*
X140978438Y-57572345D01*
X140976584Y-57564660D01*
X140998869Y-57358880D01*
X141003167Y-57351024D01*
X141010501Y-57348440D01*
X141189499Y-57348440D01*
X141197772Y-57351867D01*
G37*
%TD.AperFunction*%
%TD*%
%TA.AperFunction,Conductor*%
%TO.N,GNDREF*%
G36*
X142644015Y-57502799D02*
G01*
X143147104Y-57603478D01*
X143154544Y-57608462D01*
X143156291Y-57617196D01*
X143101936Y-57895209D01*
X143096985Y-57902671D01*
X143096935Y-57902704D01*
X142860754Y-58059885D01*
X142851968Y-58061616D01*
X142844532Y-58056627D01*
X142844246Y-58056175D01*
X142751942Y-57902704D01*
X142631702Y-57702783D01*
X142630028Y-57696753D01*
X142630028Y-57514273D01*
X142633455Y-57506000D01*
X142641728Y-57502573D01*
X142644015Y-57502799D01*
G37*
%TD.AperFunction*%
%TD*%
%TA.AperFunction,Conductor*%
%TO.N,GNDREF*%
G36*
X141952459Y-57478438D02*
G01*
X142141120Y-57498869D01*
X142148976Y-57503167D01*
X142151560Y-57510501D01*
X142151560Y-57689498D01*
X142148133Y-57697771D01*
X142141120Y-57701130D01*
X141935339Y-57723415D01*
X141926745Y-57720899D01*
X141922622Y-57714155D01*
X141899490Y-57602367D01*
X141899490Y-57597632D01*
X141922623Y-57485843D01*
X141927654Y-57478438D01*
X141935339Y-57476584D01*
X141952459Y-57478438D01*
G37*
%TD.AperFunction*%
%TD*%
%TA.AperFunction,Conductor*%
%TO.N,GNDREF*%
G36*
X143395721Y-59410242D02*
G01*
X143642195Y-59497244D01*
X143648855Y-59503229D01*
X143650000Y-59508277D01*
X143650000Y-59691722D01*
X143646573Y-59699995D01*
X143642194Y-59702755D01*
X143395722Y-59789756D01*
X143386780Y-59789278D01*
X143383044Y-59786451D01*
X143309406Y-59702755D01*
X143225798Y-59607727D01*
X143222907Y-59599254D01*
X143225799Y-59592272D01*
X143299700Y-59508277D01*
X143383046Y-59413546D01*
X143391082Y-59409600D01*
X143395721Y-59410242D01*
G37*
%TD.AperFunction*%
%TD*%
%TA.AperFunction,Conductor*%
%TO.N,Net-(U1-VREF)*%
G36*
X141937167Y-57879402D02*
G01*
X142118266Y-57937317D01*
X142188888Y-57959902D01*
X142195724Y-57965686D01*
X142196468Y-57974610D01*
X142193597Y-57979319D01*
X142068594Y-58104322D01*
X142061753Y-58107661D01*
X141935515Y-58123234D01*
X141926885Y-58120846D01*
X141922618Y-58113954D01*
X141899770Y-58001639D01*
X141899775Y-57996949D01*
X141922152Y-57888190D01*
X141927176Y-57880778D01*
X141935970Y-57879089D01*
X141937167Y-57879402D01*
G37*
%TD.AperFunction*%
%TD*%
%TA.AperFunction,Conductor*%
%TO.N,Net-(U1-VREF)*%
G36*
X142700103Y-59203427D02*
G01*
X142702814Y-59207671D01*
X142785293Y-59432512D01*
X142784925Y-59441459D01*
X142781449Y-59445810D01*
X142587849Y-59594952D01*
X142579204Y-59597286D01*
X142572742Y-59594251D01*
X142395038Y-59429012D01*
X142391313Y-59420869D01*
X142392537Y-59415217D01*
X142496768Y-59206473D01*
X142503530Y-59200602D01*
X142507236Y-59200000D01*
X142691830Y-59200000D01*
X142700103Y-59203427D01*
G37*
%TD.AperFunction*%
%TD*%
%TA.AperFunction,Conductor*%
%TO.N,/V_{LED}*%
G36*
X146438606Y-56348948D02*
G01*
X146440491Y-56350472D01*
X146682678Y-56591710D01*
X146686121Y-56599976D01*
X146682710Y-56608256D01*
X146682678Y-56608288D01*
X146440491Y-56849526D01*
X146432211Y-56852937D01*
X146429802Y-56852681D01*
X146191267Y-56801968D01*
X146183888Y-56796897D01*
X146182001Y-56790528D01*
X146182001Y-56409472D01*
X146185428Y-56401200D01*
X146191265Y-56398030D01*
X146429801Y-56347317D01*
X146438606Y-56348948D01*
G37*
%TD.AperFunction*%
%TD*%
%TA.AperFunction,Conductor*%
%TO.N,/V_{LED}*%
G36*
X146888800Y-57895428D02*
G01*
X146891971Y-57901268D01*
X146942683Y-58139801D01*
X146941052Y-58148606D01*
X146939528Y-58150491D01*
X146698290Y-58392679D01*
X146690024Y-58396122D01*
X146681744Y-58392711D01*
X146681712Y-58392679D01*
X146440473Y-58150491D01*
X146437062Y-58142211D01*
X146437316Y-58139811D01*
X146488031Y-57901268D01*
X146493103Y-57893888D01*
X146499475Y-57892001D01*
X146880527Y-57892001D01*
X146888800Y-57895428D01*
G37*
%TD.AperFunction*%
%TD*%
%TA.AperFunction,Conductor*%
%TO.N,/V_{LED}*%
G36*
X146698257Y-56607287D02*
G01*
X146939528Y-56849508D01*
X146942939Y-56857788D01*
X146942683Y-56860198D01*
X146891971Y-57098732D01*
X146886899Y-57106112D01*
X146880527Y-57107999D01*
X146499475Y-57107999D01*
X146491202Y-57104572D01*
X146488031Y-57098732D01*
X146480786Y-57064655D01*
X146437318Y-56860195D01*
X146438949Y-56851393D01*
X146440467Y-56849515D01*
X146681713Y-56607319D01*
X146689978Y-56603877D01*
X146698257Y-56607287D01*
G37*
%TD.AperFunction*%
%TD*%
%TA.AperFunction,Conductor*%
%TO.N,/V_{LED}*%
G36*
X146445774Y-58298800D02*
G01*
X146590215Y-58358063D01*
X146686181Y-58397437D01*
X146692534Y-58403747D01*
X146692564Y-58403820D01*
X146791200Y-58644225D01*
X146791170Y-58653180D01*
X146785893Y-58658983D01*
X146334760Y-58900223D01*
X146325849Y-58901103D01*
X146320970Y-58898179D01*
X146191822Y-58769031D01*
X146188395Y-58760758D01*
X146189777Y-58755244D01*
X146431019Y-58304106D01*
X146437941Y-58298428D01*
X146445774Y-58298800D01*
G37*
%TD.AperFunction*%
%TD*%
%TA.AperFunction,Conductor*%
%TO.N,/V_{LED}*%
G36*
X140414155Y-58422622D02*
G01*
X140421561Y-58427654D01*
X140423415Y-58435339D01*
X140401131Y-58641120D01*
X140396833Y-58648976D01*
X140389499Y-58651560D01*
X140210501Y-58651560D01*
X140202228Y-58648133D01*
X140198869Y-58641120D01*
X140176584Y-58435339D01*
X140179100Y-58426745D01*
X140185842Y-58422623D01*
X140297632Y-58399490D01*
X140302368Y-58399490D01*
X140414155Y-58422622D01*
G37*
%TD.AperFunction*%
%TD*%
%TA.AperFunction,Conductor*%
%TO.N,/V_{LED}*%
G36*
X135281577Y-41551296D02*
G01*
X135548703Y-41818422D01*
X135552130Y-41826695D01*
X135549117Y-41834532D01*
X135293827Y-42117524D01*
X135285741Y-42121372D01*
X135278682Y-42119443D01*
X135101277Y-42002020D01*
X135097979Y-41998722D01*
X134980556Y-41821317D01*
X134978847Y-41812526D01*
X134982473Y-41806174D01*
X135265467Y-41550881D01*
X135273905Y-41547884D01*
X135281577Y-41551296D01*
G37*
%TD.AperFunction*%
%TD*%
%TA.AperFunction,Conductor*%
%TO.N,/V_{LED}*%
G36*
X145570198Y-56347317D02*
G01*
X145808733Y-56398030D01*
X145816112Y-56403101D01*
X145817999Y-56409473D01*
X145817999Y-56790526D01*
X145814572Y-56798799D01*
X145808732Y-56801970D01*
X145570198Y-56852681D01*
X145561393Y-56851050D01*
X145559508Y-56849526D01*
X145509787Y-56800000D01*
X145317319Y-56608286D01*
X145313877Y-56600022D01*
X145317287Y-56591742D01*
X145559508Y-56350471D01*
X145567788Y-56347061D01*
X145570198Y-56347317D01*
G37*
%TD.AperFunction*%
%TD*%
%TA.AperFunction,Conductor*%
%TO.N,/V_{A}*%
G36*
X140797772Y-57351867D02*
G01*
X140801131Y-57358880D01*
X140823415Y-57564660D01*
X140820899Y-57573254D01*
X140814154Y-57577377D01*
X140702371Y-57600509D01*
X140697629Y-57600509D01*
X140585844Y-57577376D01*
X140578437Y-57572344D01*
X140576583Y-57564662D01*
X140598869Y-57358879D01*
X140603167Y-57351024D01*
X140610501Y-57348440D01*
X140789499Y-57348440D01*
X140797772Y-57351867D01*
G37*
%TD.AperFunction*%
%TD*%
%TA.AperFunction,Conductor*%
%TO.N,/V_{A}*%
G36*
X141457213Y-52963326D02*
G01*
X141566467Y-53072580D01*
X141569894Y-53080853D01*
X141566467Y-53089126D01*
X141558194Y-53092553D01*
X141556176Y-53092378D01*
X141314112Y-53049987D01*
X141306554Y-53045184D01*
X141304605Y-53036444D01*
X141309408Y-53028886D01*
X141310858Y-53028018D01*
X141443679Y-52961148D01*
X141452609Y-52960489D01*
X141457213Y-52963326D01*
G37*
%TD.AperFunction*%
%TD*%
%TA.AperFunction,Conductor*%
%TO.N,/MCU_DIO7*%
G36*
X140814155Y-58422622D02*
G01*
X140821561Y-58427654D01*
X140823415Y-58435339D01*
X140801131Y-58641120D01*
X140796833Y-58648976D01*
X140789499Y-58651560D01*
X140610501Y-58651560D01*
X140602228Y-58648133D01*
X140598869Y-58641120D01*
X140576584Y-58435339D01*
X140579100Y-58426745D01*
X140585842Y-58422623D01*
X140697632Y-58399490D01*
X140702368Y-58399490D01*
X140814155Y-58422622D01*
G37*
%TD.AperFunction*%
%TD*%
%TA.AperFunction,Conductor*%
%TO.N,/MCU_DIO7*%
G36*
X140797698Y-59155829D02*
G01*
X140801065Y-59162924D01*
X140821535Y-59365118D01*
X140818959Y-59373694D01*
X140812267Y-59377753D01*
X140702372Y-59400508D01*
X140697628Y-59400508D01*
X140587732Y-59377753D01*
X140580325Y-59372720D01*
X140578464Y-59365119D01*
X140598935Y-59162923D01*
X140603177Y-59155038D01*
X140610575Y-59152402D01*
X140789425Y-59152402D01*
X140797698Y-59155829D01*
G37*
%TD.AperFunction*%
%TD*%
%TA.AperFunction,Conductor*%
%TO.N,/MCU_DIO5*%
G36*
X141614155Y-58422622D02*
G01*
X141621561Y-58427654D01*
X141623415Y-58435339D01*
X141601131Y-58641120D01*
X141596833Y-58648976D01*
X141589499Y-58651560D01*
X141410501Y-58651560D01*
X141402228Y-58648133D01*
X141398869Y-58641120D01*
X141376584Y-58435339D01*
X141379100Y-58426745D01*
X141385842Y-58422623D01*
X141497632Y-58399490D01*
X141502368Y-58399490D01*
X141614155Y-58422622D01*
G37*
%TD.AperFunction*%
%TD*%
%TA.AperFunction,Conductor*%
%TO.N,/MCU_DIO5*%
G36*
X141597698Y-59155829D02*
G01*
X141601065Y-59162924D01*
X141621535Y-59365118D01*
X141618959Y-59373694D01*
X141612267Y-59377753D01*
X141502372Y-59400508D01*
X141497628Y-59400508D01*
X141387732Y-59377753D01*
X141380325Y-59372720D01*
X141378464Y-59365119D01*
X141398935Y-59162923D01*
X141403177Y-59155038D01*
X141410575Y-59152402D01*
X141589425Y-59152402D01*
X141597698Y-59155829D01*
G37*
%TD.AperFunction*%
%TD*%
%TA.AperFunction,Conductor*%
%TO.N,/MCU_DIO4*%
G36*
X142014155Y-58422622D02*
G01*
X142021561Y-58427654D01*
X142023415Y-58435339D01*
X142001131Y-58641120D01*
X141996833Y-58648976D01*
X141989499Y-58651560D01*
X141810501Y-58651560D01*
X141802228Y-58648133D01*
X141798869Y-58641120D01*
X141776584Y-58435339D01*
X141779100Y-58426745D01*
X141785842Y-58422623D01*
X141897632Y-58399490D01*
X141902368Y-58399490D01*
X142014155Y-58422622D01*
G37*
%TD.AperFunction*%
%TD*%
%TA.AperFunction,Conductor*%
%TO.N,/MCU_DIO4*%
G36*
X141997698Y-59155829D02*
G01*
X142001065Y-59162924D01*
X142021535Y-59365118D01*
X142018959Y-59373694D01*
X142012267Y-59377753D01*
X141902372Y-59400508D01*
X141897628Y-59400508D01*
X141787732Y-59377753D01*
X141780325Y-59372720D01*
X141778464Y-59365119D01*
X141798935Y-59162923D01*
X141803177Y-59155038D01*
X141810575Y-59152402D01*
X141989425Y-59152402D01*
X141997698Y-59155829D01*
G37*
%TD.AperFunction*%
%TD*%
%TA.AperFunction,Conductor*%
%TO.N,/MCU_DIO6*%
G36*
X141214155Y-58422622D02*
G01*
X141221561Y-58427654D01*
X141223415Y-58435339D01*
X141201131Y-58641120D01*
X141196833Y-58648976D01*
X141189499Y-58651560D01*
X141010501Y-58651560D01*
X141002228Y-58648133D01*
X140998869Y-58641120D01*
X140976584Y-58435339D01*
X140979100Y-58426745D01*
X140985842Y-58422623D01*
X141097632Y-58399490D01*
X141102368Y-58399490D01*
X141214155Y-58422622D01*
G37*
%TD.AperFunction*%
%TD*%
%TA.AperFunction,Conductor*%
%TO.N,/MCU_DIO6*%
G36*
X141197698Y-59155829D02*
G01*
X141201065Y-59162924D01*
X141221535Y-59365118D01*
X141218959Y-59373694D01*
X141212267Y-59377753D01*
X141102372Y-59400508D01*
X141097628Y-59400508D01*
X140987732Y-59377753D01*
X140980325Y-59372720D01*
X140978464Y-59365119D01*
X140998935Y-59162923D01*
X141003177Y-59155038D01*
X141010575Y-59152402D01*
X141189425Y-59152402D01*
X141197698Y-59155829D01*
G37*
%TD.AperFunction*%
%TD*%
%TA.AperFunction,Conductor*%
%TO.N,/PD1*%
G36*
X141952459Y-57078438D02*
G01*
X142141120Y-57098869D01*
X142148976Y-57103167D01*
X142151560Y-57110501D01*
X142151560Y-57289498D01*
X142148133Y-57297771D01*
X142141120Y-57301130D01*
X141935339Y-57323415D01*
X141926745Y-57320899D01*
X141922622Y-57314155D01*
X141899490Y-57202367D01*
X141899490Y-57197632D01*
X141922623Y-57085843D01*
X141927654Y-57078438D01*
X141935339Y-57076584D01*
X141952459Y-57078438D01*
G37*
%TD.AperFunction*%
%TD*%
%TA.AperFunction,Conductor*%
%TO.N,/PD1*%
G36*
X144001407Y-57862404D02*
G01*
X144002447Y-57863595D01*
X144102335Y-57995164D01*
X144211170Y-58138518D01*
X144213443Y-58147180D01*
X144210772Y-58153163D01*
X144008921Y-58391026D01*
X144000955Y-58395117D01*
X143992430Y-58392377D01*
X143991727Y-58391729D01*
X143752963Y-58152965D01*
X143749536Y-58144692D01*
X143751673Y-58137953D01*
X143852348Y-57995157D01*
X143853626Y-57993639D01*
X143984862Y-57862403D01*
X143993134Y-57858977D01*
X144001407Y-57862404D01*
G37*
%TD.AperFunction*%
%TD*%
M02*
