M48
; DRILL file {KiCad 9.0.6} date 2026-02-05T15:03:39-0500
; FORMAT={-:-/ absolute / metric / decimal}
; #@! TF.CreationDate,2026-02-05T15:03:39-05:00
; #@! TF.GenerationSoftware,Kicad,Pcbnew,9.0.6
; #@! TF.FileFunction,Plated,1,4,PTH
FMAT,2
METRIC
; #@! TA.AperFunction,Plated,PTH,ViaDrill
T1C0.150
; #@! TA.AperFunction,Plated,PTH,ViaDrill
T2C0.200
; #@! TA.AperFunction,Plated,PTH,ComponentDrill
T3C0.203
; #@! TA.AperFunction,Plated,PTH,ViaDrill
T4C0.300
; #@! TA.AperFunction,Plated,PTH,ViaDrill
T5C0.400
; #@! TA.AperFunction,Plated,PTH,ViaDrill
T6C0.450
; #@! TA.AperFunction,Plated,PTH,ComponentDrill
T7C1.000
%
G90
G05
T1
X140.3Y-57.2
X140.3Y-57.6
X140.3Y-58.0
X140.7Y-58.0
X140.7Y-59.4
X141.1Y-59.4
X141.5Y-59.4
X141.9Y-59.4
X145.3Y-58.4
X148.0Y-56.6
X148.0Y-58.4
T2
X129.9Y-42.5
X130.4Y-42.0
X130.4Y-42.5
X130.9Y-63.4
X131.2Y-62.9
X133.6Y-44.0
X133.6Y-44.7
X133.6Y-45.3
X137.78Y-42.3
X137.78Y-42.8
X137.78Y-43.3
X141.4Y-66.0
X142.0Y-63.0
T3
X136.9Y-48.2
X138.0Y-47.1
X138.0Y-48.2
X138.0Y-49.3
X139.1Y-48.2
T4
X125.403Y-38.75
X134.4Y-40.8
X134.4Y-41.4
X134.4Y-42.0
X134.5Y-49.2
X135.1Y-40.8
X135.1Y-41.4
X135.1Y-42.0
X135.6Y-50.1
X135.7Y-44.4
X136.1Y-46.2
X136.4Y-45.2
X136.6Y-39.6
X136.6Y-40.1
X136.6Y-40.7
X136.6Y-42.0
X136.6Y-43.1
X136.6Y-44.3
X137.9Y-41.7
X138.6Y-41.7
X138.9Y-45.6
X139.0Y-43.3
X139.2Y-41.9
X139.2Y-42.6
X139.3Y-45.1
X140.0Y-44.5
X140.6Y-47.2
X140.7Y-51.2
X141.1Y-44.5
X141.4Y-49.1
X141.5Y-53.0
X141.6Y-52.0
X142.0Y-44.5
X142.4Y-52.6
X142.9Y-44.5
X143.1Y-48.0
X143.1Y-52.1
X143.1Y-53.0
X143.2Y-50.9
T5
X126.4Y-58.2
X126.4Y-59.4
X127.0Y-58.8
X127.6Y-58.2
X127.6Y-59.4
X127.9Y-64.8
X127.9Y-65.6
X132.8Y-54.9
X132.8Y-56.2
X133.8Y-55.6
X134.2Y-69.7
X135.5Y-71.2
X137.4Y-54.9
X137.6Y-55.9
X138.1Y-70.4
X138.6Y-71.0
X139.4Y-71.5
X139.61Y-69.49
X140.16Y-70.04
T6
X121.5Y-48.2
X121.5Y-52.3
X122.0Y-71.0
X122.0Y-74.2
X122.2Y-42.1
X122.9Y-48.1
X122.9Y-52.6
X123.4Y-41.0
X124.7Y-42.7
X126.3Y-74.2
X126.9Y-42.3
X127.9Y-40.4
X128.0Y-44.2
X128.2Y-71.2
X128.9Y-39.2
X129.5Y-58.7
X129.5Y-63.2
X130.4Y-67.6
X130.5Y-64.1
X131.0Y-57.9
X131.3Y-59.4
X131.8Y-67.9
X132.1Y-41.0
X132.2Y-74.2
X132.7Y-68.7
X132.8Y-43.9
X134.3Y-51.8
X135.1Y-69.7
X136.3Y-53.1
X139.6Y-56.5
X139.7Y-55.2
X139.7Y-58.5
X139.8Y-60.5
X140.2Y-38.2
X140.2Y-40.5
X140.6Y-66.1
X140.8Y-68.1
X141.3Y-63.5
X141.7Y-56.5
X141.8Y-69.3
X142.1Y-54.8
X142.7Y-66.7
X142.8Y-56.4
X143.0Y-40.7
X143.0Y-70.7
X143.1Y-57.9
X143.4Y-61.2
X143.5Y-63.0
X144.0Y-54.8
X144.1Y-66.7
X144.4Y-41.5
X144.4Y-42.8
X144.8Y-74.0
X145.3Y-66.7
T7
X122.3Y-58.66
X122.3Y-61.2
X122.3Y-63.74
X122.3Y-66.28
X122.3Y-68.82
X130.125Y-37.8
X132.665Y-37.8
M30
