%TF.GenerationSoftware,KiCad,Pcbnew,9.0.6*%
%TF.CreationDate,2026-02-05T15:03:14-05:00*%
%TF.ProjectId,health_monitor,6865616c-7468-45f6-9d6f-6e69746f722e,rev?*%
%TF.SameCoordinates,Original*%
%TF.FileFunction,Paste,Top*%
%TF.FilePolarity,Positive*%
%FSLAX46Y46*%
G04 Gerber Fmt 4.6, Leading zero omitted, Abs format (unit mm)*
G04 Created by KiCad (PCBNEW 9.0.6) date 2026-02-05 15:03:14*
%MOMM*%
%LPD*%
G01*
G04 APERTURE LIST*
G04 Aperture macros list*
%AMRoundRect*
0 Rectangle with rounded corners*
0 $1 Rounding radius*
0 $2 $3 $4 $5 $6 $7 $8 $9 X,Y pos of 4 corners*
0 Add a 4 corners polygon primitive as box body*
4,1,4,$2,$3,$4,$5,$6,$7,$8,$9,$2,$3,0*
0 Add four circle primitives for the rounded corners*
1,1,$1+$1,$2,$3*
1,1,$1+$1,$4,$5*
1,1,$1+$1,$6,$7*
1,1,$1+$1,$8,$9*
0 Add four rect primitives between the rounded corners*
20,1,$1+$1,$2,$3,$4,$5,0*
20,1,$1+$1,$4,$5,$6,$7,0*
20,1,$1+$1,$6,$7,$8,$9,0*
20,1,$1+$1,$8,$9,$2,$3,0*%
G04 Aperture macros list end*
%ADD10C,0.000000*%
%ADD11O,1.955800X0.939800*%
%ADD12O,2.159000X0.939800*%
%ADD13R,0.812800X0.279400*%
%ADD14R,0.812800X0.330200*%
%ADD15RoundRect,0.079500X0.100500X-0.079500X0.100500X0.079500X-0.100500X0.079500X-0.100500X-0.079500X0*%
%ADD16RoundRect,0.067500X-0.067500X0.067500X-0.067500X-0.067500X0.067500X-0.067500X0.067500X0.067500X0*%
%ADD17RoundRect,0.150000X-0.400000X0.150000X-0.400000X-0.150000X0.400000X-0.150000X0.400000X0.150000X0*%
%ADD18RoundRect,0.079500X-0.079500X-0.100500X0.079500X-0.100500X0.079500X0.100500X-0.079500X0.100500X0*%
%ADD19RoundRect,0.079500X0.079500X0.100500X-0.079500X0.100500X-0.079500X-0.100500X0.079500X-0.100500X0*%
%ADD20RoundRect,0.250000X-0.375000X-0.850000X0.375000X-0.850000X0.375000X0.850000X-0.375000X0.850000X0*%
%ADD21RoundRect,0.250000X0.850000X-0.375000X0.850000X0.375000X-0.850000X0.375000X-0.850000X-0.375000X0*%
%ADD22R,0.330200X0.381000*%
%ADD23R,0.381000X0.330200*%
%ADD24RoundRect,0.140000X-0.140000X-0.170000X0.140000X-0.170000X0.140000X0.170000X-0.140000X0.170000X0*%
%ADD25RoundRect,0.140000X0.140000X0.170000X-0.140000X0.170000X-0.140000X-0.170000X0.140000X-0.170000X0*%
%ADD26C,0.279400*%
%ADD27RoundRect,0.067500X0.067500X0.067500X-0.067500X0.067500X-0.067500X-0.067500X0.067500X-0.067500X0*%
%ADD28RoundRect,0.067500X0.067500X-0.067500X0.067500X0.067500X-0.067500X0.067500X-0.067500X-0.067500X0*%
%ADD29RoundRect,0.147500X-0.147500X-0.172500X0.147500X-0.172500X0.147500X0.172500X-0.147500X0.172500X0*%
%ADD30RoundRect,0.079500X-0.100500X0.079500X-0.100500X-0.079500X0.100500X-0.079500X0.100500X0.079500X0*%
%ADD31RoundRect,0.140000X-0.170000X0.140000X-0.170000X-0.140000X0.170000X-0.140000X0.170000X0.140000X0*%
%ADD32RoundRect,0.160000X-0.197500X-0.160000X0.197500X-0.160000X0.197500X0.160000X-0.197500X0.160000X0*%
%ADD33RoundRect,0.160000X-0.160000X0.197500X-0.160000X-0.197500X0.160000X-0.197500X0.160000X0.197500X0*%
%ADD34RoundRect,0.160000X0.197500X0.160000X-0.197500X0.160000X-0.197500X-0.160000X0.197500X-0.160000X0*%
%ADD35RoundRect,0.067500X-0.067500X-0.067500X0.067500X-0.067500X0.067500X0.067500X-0.067500X0.067500X0*%
%ADD36O,0.240000X0.599999*%
%ADD37O,0.599999X0.240000*%
%ADD38RoundRect,0.250000X-0.350000X-0.650000X0.350000X-0.650000X0.350000X0.650000X-0.350000X0.650000X0*%
%ADD39R,0.812800X0.254000*%
%ADD40R,0.254000X0.812800*%
%ADD41R,5.257800X5.257800*%
%ADD42RoundRect,0.160000X0.160000X-0.197500X0.160000X0.197500X-0.160000X0.197500X-0.160000X-0.197500X0*%
%ADD43RoundRect,0.200000X-0.200000X0.250000X-0.200000X-0.250000X0.200000X-0.250000X0.200000X0.250000X0*%
%ADD44R,0.711200X0.279400*%
%ADD45R,0.990600X1.701800*%
%ADD46RoundRect,0.147500X-0.172500X0.147500X-0.172500X-0.147500X0.172500X-0.147500X0.172500X0.147500X0*%
G04 APERTURE END LIST*
D10*
%TO.C,U4*%
G36*
X137900000Y-49487998D02*
G01*
X136711999Y-49487998D01*
X136711999Y-48299997D01*
X137900000Y-48299997D01*
X137900000Y-49487998D01*
G37*
G36*
X137900000Y-48100000D02*
G01*
X136711999Y-48100000D01*
X136711999Y-46911999D01*
X137900000Y-46911999D01*
X137900000Y-48100000D01*
G37*
G36*
X139287998Y-49487998D02*
G01*
X138099997Y-49487998D01*
X138099997Y-48299997D01*
X139287998Y-48299997D01*
X139287998Y-49487998D01*
G37*
G36*
X139287998Y-48100000D02*
G01*
X138099997Y-48100000D01*
X138099997Y-46911999D01*
X139287998Y-46911999D01*
X139287998Y-48100000D01*
G37*
%TO.C,MCU1*%
G36*
X134185550Y-62685550D02*
G01*
X133071100Y-62685550D01*
X133071100Y-61571100D01*
X134185550Y-61571100D01*
X134185550Y-62685550D01*
G37*
G36*
X134185550Y-64000000D02*
G01*
X133071100Y-64000000D01*
X133071100Y-62885550D01*
X134185550Y-62885550D01*
X134185550Y-64000000D01*
G37*
G36*
X134185550Y-65314450D02*
G01*
X133071100Y-65314450D01*
X133071100Y-64200000D01*
X134185550Y-64200000D01*
X134185550Y-65314450D01*
G37*
G36*
X134185550Y-66628900D02*
G01*
X133071100Y-66628900D01*
X133071100Y-65514450D01*
X134185550Y-65514450D01*
X134185550Y-66628900D01*
G37*
G36*
X135500000Y-62685550D02*
G01*
X134385550Y-62685550D01*
X134385550Y-61571100D01*
X135500000Y-61571100D01*
X135500000Y-62685550D01*
G37*
G36*
X135500000Y-64000000D02*
G01*
X134385550Y-64000000D01*
X134385550Y-62885550D01*
X135500000Y-62885550D01*
X135500000Y-64000000D01*
G37*
G36*
X135500000Y-65314450D02*
G01*
X134385550Y-65314450D01*
X134385550Y-64200000D01*
X135500000Y-64200000D01*
X135500000Y-65314450D01*
G37*
G36*
X135500000Y-66628900D02*
G01*
X134385550Y-66628900D01*
X134385550Y-65514450D01*
X135500000Y-65514450D01*
X135500000Y-66628900D01*
G37*
G36*
X136814450Y-62685550D02*
G01*
X135700000Y-62685550D01*
X135700000Y-61571100D01*
X136814450Y-61571100D01*
X136814450Y-62685550D01*
G37*
G36*
X136814450Y-64000000D02*
G01*
X135700000Y-64000000D01*
X135700000Y-62885550D01*
X136814450Y-62885550D01*
X136814450Y-64000000D01*
G37*
G36*
X136814450Y-65314450D02*
G01*
X135700000Y-65314450D01*
X135700000Y-64200000D01*
X136814450Y-64200000D01*
X136814450Y-65314450D01*
G37*
G36*
X136814450Y-66628900D02*
G01*
X135700000Y-66628900D01*
X135700000Y-65514450D01*
X136814450Y-65514450D01*
X136814450Y-66628900D01*
G37*
G36*
X138128900Y-62685550D02*
G01*
X137014450Y-62685550D01*
X137014450Y-61571100D01*
X138128900Y-61571100D01*
X138128900Y-62685550D01*
G37*
G36*
X138128900Y-64000000D02*
G01*
X137014450Y-64000000D01*
X137014450Y-62885550D01*
X138128900Y-62885550D01*
X138128900Y-64000000D01*
G37*
G36*
X138128900Y-65314450D02*
G01*
X137014450Y-65314450D01*
X137014450Y-64200000D01*
X138128900Y-64200000D01*
X138128900Y-65314450D01*
G37*
G36*
X138128900Y-66628900D02*
G01*
X137014450Y-66628900D01*
X137014450Y-65514450D01*
X138128900Y-65514450D01*
X138128900Y-66628900D01*
G37*
%TD*%
D11*
%TO.C,J1*%
X121867400Y-54750001D03*
X121867400Y-45849999D03*
D12*
X125067399Y-54749953D03*
X125067399Y-45850047D03*
D13*
X121682399Y-53350000D03*
X121682399Y-51550315D03*
X121682399Y-51050189D03*
X121682399Y-50550063D03*
X121682399Y-50049937D03*
X121682399Y-49549811D03*
X121682399Y-49049685D03*
X121682399Y-47250000D03*
X122932399Y-47299993D03*
X122932399Y-48799685D03*
X122932399Y-49299811D03*
X122932399Y-49799937D03*
X122932399Y-50800063D03*
X122932399Y-51300189D03*
X122932399Y-51800315D03*
X122932399Y-53300007D03*
D14*
X121682407Y-53850001D03*
X121682407Y-46749999D03*
%TD*%
D15*
%TO.C,R8*%
X127700000Y-39345000D03*
X127700000Y-38655000D03*
%TD*%
D16*
%TO.C,C11*%
X142000000Y-65425000D03*
X142000000Y-65975000D03*
%TD*%
D17*
%TO.C,NX2012SA-1*%
X143500000Y-64000000D03*
X143500000Y-65400000D03*
%TD*%
D18*
%TO.C,C27*%
X135435000Y-39700000D03*
X136125000Y-39700000D03*
%TD*%
D15*
%TO.C,R7*%
X123100000Y-39845000D03*
X123100000Y-39155000D03*
%TD*%
D19*
%TO.C,C29*%
X143945000Y-44900000D03*
X143255000Y-44900000D03*
%TD*%
D20*
%TO.C,L2*%
X140625000Y-42700000D03*
X142775000Y-42700000D03*
%TD*%
D21*
%TO.C,L1*%
X138200000Y-40375000D03*
X138200000Y-38225000D03*
%TD*%
D19*
%TO.C,R12*%
X139945000Y-51200000D03*
X139255000Y-51200000D03*
%TD*%
D22*
%TO.C,U2*%
X134849999Y-57763600D03*
X135350000Y-57763600D03*
X135850000Y-57763600D03*
X136350001Y-57763600D03*
D23*
X136514400Y-57150000D03*
X136514400Y-56650000D03*
D22*
X136350001Y-56036400D03*
X135850000Y-56036400D03*
X135350000Y-56036400D03*
X134849999Y-56036400D03*
D23*
X134685600Y-56650000D03*
X134685600Y-57150000D03*
%TD*%
D15*
%TO.C,C30*%
X140700000Y-52645000D03*
X140700000Y-51955000D03*
%TD*%
D16*
%TO.C,C20*%
X133600000Y-56725000D03*
X133600000Y-57275000D03*
%TD*%
D24*
%TO.C,C32*%
X144620000Y-68400000D03*
X145580000Y-68400000D03*
%TD*%
D25*
%TO.C,C6*%
X141780000Y-70700000D03*
X140820000Y-70700000D03*
%TD*%
D26*
%TO.C,U5*%
X130900000Y-42500126D03*
X130399874Y-42500126D03*
X129899748Y-42500126D03*
X130900000Y-42000000D03*
X130399874Y-42000000D03*
X129899748Y-42000000D03*
X130900000Y-41499874D03*
X130399874Y-41499874D03*
X129899748Y-41499874D03*
%TD*%
D27*
%TO.C,C9*%
X132775000Y-59400000D03*
X132225000Y-59400000D03*
%TD*%
D28*
%TO.C,C5*%
X130500000Y-65575000D03*
X130500000Y-65025000D03*
%TD*%
D15*
%TO.C,R10*%
X122200000Y-39345000D03*
X122200000Y-38655000D03*
%TD*%
D28*
%TO.C,C13*%
X139800000Y-72975000D03*
X139800000Y-72425000D03*
%TD*%
D16*
%TO.C,C10*%
X130500000Y-66425000D03*
X130500000Y-66975000D03*
%TD*%
D18*
%TO.C,C31*%
X136455000Y-51800000D03*
X137145000Y-51800000D03*
%TD*%
D29*
%TO.C,L3*%
X148615000Y-68400000D03*
X149585000Y-68400000D03*
%TD*%
D30*
%TO.C,R6*%
X138400000Y-51255000D03*
X138400000Y-51945000D03*
%TD*%
D27*
%TO.C,C3*%
X132775000Y-58500000D03*
X132225000Y-58500000D03*
%TD*%
D15*
%TO.C,R9*%
X122200000Y-40945000D03*
X122200000Y-40255000D03*
%TD*%
D31*
%TO.C,C4*%
X129100000Y-64220000D03*
X129100000Y-65180000D03*
%TD*%
D32*
%TO.C,R1*%
X128102500Y-66500000D03*
X129297500Y-66500000D03*
%TD*%
D33*
%TO.C,R5*%
X141600000Y-44902500D03*
X141600000Y-46097500D03*
%TD*%
D27*
%TO.C,C21*%
X134875000Y-55000000D03*
X134325000Y-55000000D03*
%TD*%
D34*
%TO.C,R3*%
X135697500Y-45200000D03*
X134502500Y-45200000D03*
%TD*%
D35*
%TO.C,C19*%
X135875000Y-54600000D03*
X136425000Y-54600000D03*
%TD*%
D36*
%TO.C,U4*%
X136750000Y-50099999D03*
X137249999Y-50099999D03*
X137750000Y-50099999D03*
X138250000Y-50099999D03*
X138750001Y-50099999D03*
X139250000Y-50099999D03*
D37*
X139899999Y-49450000D03*
X139899999Y-48950001D03*
X139899999Y-48450000D03*
X139899999Y-47950000D03*
X139899999Y-47449999D03*
X139899999Y-46950000D03*
D36*
X139250000Y-46300001D03*
X138750001Y-46300001D03*
X138250000Y-46300001D03*
X137750000Y-46300001D03*
X137249999Y-46300001D03*
X136750000Y-46300001D03*
D37*
X136100001Y-46950000D03*
X136100001Y-47449999D03*
X136100001Y-47950000D03*
X136100001Y-48450000D03*
X136100001Y-48950001D03*
X136100001Y-49450000D03*
%TD*%
D35*
%TO.C,C2*%
X139025000Y-59300000D03*
X139575000Y-59300000D03*
%TD*%
D38*
%TO.C,AE1*%
X151950000Y-68400000D03*
X154850000Y-68400000D03*
%TD*%
D15*
%TO.C,C24*%
X135500000Y-51845000D03*
X135500000Y-51155000D03*
%TD*%
D35*
%TO.C,C8*%
X139125000Y-68700000D03*
X139675000Y-68700000D03*
%TD*%
D18*
%TO.C,C22*%
X128054874Y-42400126D03*
X128744874Y-42400126D03*
%TD*%
D39*
%TO.C,MCU1*%
X139054400Y-66850693D03*
X139054400Y-66350567D03*
X139054400Y-65850441D03*
X139054400Y-65350315D03*
X139054400Y-64850189D03*
X139054400Y-64350063D03*
X139054400Y-63849937D03*
X139054400Y-63349811D03*
X139054400Y-62849685D03*
X139054400Y-62349559D03*
X139054400Y-61849433D03*
X139054400Y-61349307D03*
D40*
X138350693Y-60645600D03*
X137850567Y-60645600D03*
X137350441Y-60645600D03*
X136850315Y-60645600D03*
X136350189Y-60645600D03*
X135850063Y-60645600D03*
X135349937Y-60645600D03*
X134849811Y-60645600D03*
X134349685Y-60645600D03*
X133849559Y-60645600D03*
X133349433Y-60645600D03*
X132849307Y-60645600D03*
D39*
X132145600Y-61349307D03*
X132145600Y-61849433D03*
X132145600Y-62349559D03*
X132145600Y-62849685D03*
X132145600Y-63349811D03*
X132145600Y-63849937D03*
X132145600Y-64350063D03*
X132145600Y-64850189D03*
X132145600Y-65350315D03*
X132145600Y-65850441D03*
X132145600Y-66350567D03*
X132145600Y-66850693D03*
D40*
X132849307Y-67554400D03*
X133349433Y-67554400D03*
X133849559Y-67554400D03*
X134349685Y-67554400D03*
X134849811Y-67554400D03*
X135349937Y-67554400D03*
X135850063Y-67554400D03*
X136350189Y-67554400D03*
X136850315Y-67554400D03*
X137350441Y-67554400D03*
X137850567Y-67554400D03*
X138350693Y-67554400D03*
D41*
X135600000Y-64100000D03*
%TD*%
D19*
%TO.C,R11*%
X132744874Y-43000000D03*
X132054874Y-43000000D03*
%TD*%
D28*
%TO.C,C14*%
X136300000Y-72275000D03*
X136300000Y-71725000D03*
%TD*%
D27*
%TO.C,C7*%
X136675000Y-69800000D03*
X136125000Y-69800000D03*
%TD*%
%TO.C,C28*%
X143875000Y-45800000D03*
X143325000Y-45800000D03*
%TD*%
D19*
%TO.C,R13*%
X132744874Y-42200126D03*
X132054874Y-42200126D03*
%TD*%
D32*
%TO.C,R4*%
X142802500Y-46700000D03*
X143997500Y-46700000D03*
%TD*%
D42*
%TO.C,R2*%
X134500000Y-43897500D03*
X134500000Y-42702500D03*
%TD*%
D43*
%TO.C,CX2016FB-1*%
X137450000Y-71900000D03*
X137450000Y-73300000D03*
X138550000Y-73300000D03*
X138550000Y-71900000D03*
%TD*%
D16*
%TO.C,C26*%
X135500000Y-42925000D03*
X135500000Y-43475000D03*
%TD*%
D44*
%TO.C,U3*%
X124400000Y-38000000D03*
X124400000Y-38500126D03*
X124400000Y-39000252D03*
X124400000Y-39500378D03*
X126406600Y-39500378D03*
X126406600Y-39000252D03*
X126406600Y-38500126D03*
X126406600Y-38000000D03*
D45*
X125403300Y-38750189D03*
%TD*%
D27*
%TO.C,C1*%
X135775000Y-68700000D03*
X135225000Y-68700000D03*
%TD*%
D19*
%TO.C,C25*%
X138445000Y-43700000D03*
X137755000Y-43700000D03*
%TD*%
%TO.C,C23*%
X129845000Y-40500000D03*
X129155000Y-40500000D03*
%TD*%
D16*
%TO.C,C12*%
X142000000Y-63625000D03*
X142000000Y-64175000D03*
%TD*%
D46*
%TO.C,L4*%
X147100000Y-68415000D03*
X147100000Y-69385000D03*
%TD*%
M02*
