%TF.GenerationSoftware,KiCad,Pcbnew,9.0.6*%
%TF.CreationDate,2026-02-05T15:03:14-05:00*%
%TF.ProjectId,health_monitor,6865616c-7468-45f6-9d6f-6e69746f722e,rev?*%
%TF.SameCoordinates,Original*%
%TF.FileFunction,Legend,Top*%
%TF.FilePolarity,Positive*%
%FSLAX46Y46*%
G04 Gerber Fmt 4.6, Leading zero omitted, Abs format (unit mm)*
G04 Created by KiCad (PCBNEW 9.0.6) date 2026-02-05 15:03:14*
%MOMM*%
%LPD*%
G01*
G04 APERTURE LIST*
%ADD10C,0.150000*%
%ADD11C,0.152400*%
%ADD12C,0.508000*%
%ADD13C,0.120000*%
%ADD14C,0.000000*%
%ADD15C,0.200000*%
G04 APERTURE END LIST*
D10*
X121762218Y-50633333D02*
X122476503Y-50633333D01*
X122476503Y-50633333D02*
X122619360Y-50680952D01*
X122619360Y-50680952D02*
X122714599Y-50776190D01*
X122714599Y-50776190D02*
X122762218Y-50919047D01*
X122762218Y-50919047D02*
X122762218Y-51014285D01*
X122762218Y-49633333D02*
X122762218Y-50204761D01*
X122762218Y-49919047D02*
X121762218Y-49919047D01*
X121762218Y-49919047D02*
X121905075Y-50014285D01*
X121905075Y-50014285D02*
X122000313Y-50109523D01*
X122000313Y-50109523D02*
X122047932Y-50204761D01*
X135054819Y-57661904D02*
X135864342Y-57661904D01*
X135864342Y-57661904D02*
X135959580Y-57614285D01*
X135959580Y-57614285D02*
X136007200Y-57566666D01*
X136007200Y-57566666D02*
X136054819Y-57471428D01*
X136054819Y-57471428D02*
X136054819Y-57280952D01*
X136054819Y-57280952D02*
X136007200Y-57185714D01*
X136007200Y-57185714D02*
X135959580Y-57138095D01*
X135959580Y-57138095D02*
X135864342Y-57090476D01*
X135864342Y-57090476D02*
X135054819Y-57090476D01*
X135150057Y-56661904D02*
X135102438Y-56614285D01*
X135102438Y-56614285D02*
X135054819Y-56519047D01*
X135054819Y-56519047D02*
X135054819Y-56280952D01*
X135054819Y-56280952D02*
X135102438Y-56185714D01*
X135102438Y-56185714D02*
X135150057Y-56138095D01*
X135150057Y-56138095D02*
X135245295Y-56090476D01*
X135245295Y-56090476D02*
X135340533Y-56090476D01*
X135340533Y-56090476D02*
X135483390Y-56138095D01*
X135483390Y-56138095D02*
X136054819Y-56709523D01*
X136054819Y-56709523D02*
X136054819Y-56090476D01*
X134304819Y-58741499D02*
X134542914Y-58741499D01*
X134447676Y-58979594D02*
X134542914Y-58741499D01*
X134542914Y-58741499D02*
X134447676Y-58503404D01*
X134733390Y-58884356D02*
X134542914Y-58741499D01*
X134542914Y-58741499D02*
X134733390Y-58598642D01*
X134304819Y-58741499D02*
X134542914Y-58741499D01*
X134447676Y-58979594D02*
X134542914Y-58741499D01*
X134542914Y-58741499D02*
X134447676Y-58503404D01*
X134733390Y-58884356D02*
X134542914Y-58741499D01*
X134542914Y-58741499D02*
X134733390Y-58598642D01*
X131161778Y-42545180D02*
X131161778Y-41735657D01*
X131161778Y-41735657D02*
X131114159Y-41640419D01*
X131114159Y-41640419D02*
X131066540Y-41592800D01*
X131066540Y-41592800D02*
X130971302Y-41545180D01*
X130971302Y-41545180D02*
X130780826Y-41545180D01*
X130780826Y-41545180D02*
X130685588Y-41592800D01*
X130685588Y-41592800D02*
X130637969Y-41640419D01*
X130637969Y-41640419D02*
X130590350Y-41735657D01*
X130590350Y-41735657D02*
X130590350Y-42545180D01*
X129637969Y-42545180D02*
X130114159Y-42545180D01*
X130114159Y-42545180D02*
X130161778Y-42068990D01*
X130161778Y-42068990D02*
X130114159Y-42116609D01*
X130114159Y-42116609D02*
X130018921Y-42164228D01*
X130018921Y-42164228D02*
X129780826Y-42164228D01*
X129780826Y-42164228D02*
X129685588Y-42116609D01*
X129685588Y-42116609D02*
X129637969Y-42068990D01*
X129637969Y-42068990D02*
X129590350Y-41973752D01*
X129590350Y-41973752D02*
X129590350Y-41735657D01*
X129590350Y-41735657D02*
X129637969Y-41640419D01*
X129637969Y-41640419D02*
X129685588Y-41592800D01*
X129685588Y-41592800D02*
X129780826Y-41545180D01*
X129780826Y-41545180D02*
X130018921Y-41545180D01*
X130018921Y-41545180D02*
X130114159Y-41592800D01*
X130114159Y-41592800D02*
X130161778Y-41640419D01*
X121966666Y-55734819D02*
X121966666Y-56449104D01*
X121966666Y-56449104D02*
X121919047Y-56591961D01*
X121919047Y-56591961D02*
X121823809Y-56687200D01*
X121823809Y-56687200D02*
X121680952Y-56734819D01*
X121680952Y-56734819D02*
X121585714Y-56734819D01*
X122347619Y-55734819D02*
X122966666Y-55734819D01*
X122966666Y-55734819D02*
X122633333Y-56115771D01*
X122633333Y-56115771D02*
X122776190Y-56115771D01*
X122776190Y-56115771D02*
X122871428Y-56163390D01*
X122871428Y-56163390D02*
X122919047Y-56211009D01*
X122919047Y-56211009D02*
X122966666Y-56306247D01*
X122966666Y-56306247D02*
X122966666Y-56544342D01*
X122966666Y-56544342D02*
X122919047Y-56639580D01*
X122919047Y-56639580D02*
X122871428Y-56687200D01*
X122871428Y-56687200D02*
X122776190Y-56734819D01*
X122776190Y-56734819D02*
X122490476Y-56734819D01*
X122490476Y-56734819D02*
X122395238Y-56687200D01*
X122395238Y-56687200D02*
X122347619Y-56639580D01*
X135507142Y-53959580D02*
X135459523Y-54007200D01*
X135459523Y-54007200D02*
X135316666Y-54054819D01*
X135316666Y-54054819D02*
X135221428Y-54054819D01*
X135221428Y-54054819D02*
X135078571Y-54007200D01*
X135078571Y-54007200D02*
X134983333Y-53911961D01*
X134983333Y-53911961D02*
X134935714Y-53816723D01*
X134935714Y-53816723D02*
X134888095Y-53626247D01*
X134888095Y-53626247D02*
X134888095Y-53483390D01*
X134888095Y-53483390D02*
X134935714Y-53292914D01*
X134935714Y-53292914D02*
X134983333Y-53197676D01*
X134983333Y-53197676D02*
X135078571Y-53102438D01*
X135078571Y-53102438D02*
X135221428Y-53054819D01*
X135221428Y-53054819D02*
X135316666Y-53054819D01*
X135316666Y-53054819D02*
X135459523Y-53102438D01*
X135459523Y-53102438D02*
X135507142Y-53150057D01*
X136459523Y-54054819D02*
X135888095Y-54054819D01*
X136173809Y-54054819D02*
X136173809Y-53054819D01*
X136173809Y-53054819D02*
X136078571Y-53197676D01*
X136078571Y-53197676D02*
X135983333Y-53292914D01*
X135983333Y-53292914D02*
X135888095Y-53340533D01*
X136935714Y-54054819D02*
X137126190Y-54054819D01*
X137126190Y-54054819D02*
X137221428Y-54007200D01*
X137221428Y-54007200D02*
X137269047Y-53959580D01*
X137269047Y-53959580D02*
X137364285Y-53816723D01*
X137364285Y-53816723D02*
X137411904Y-53626247D01*
X137411904Y-53626247D02*
X137411904Y-53245295D01*
X137411904Y-53245295D02*
X137364285Y-53150057D01*
X137364285Y-53150057D02*
X137316666Y-53102438D01*
X137316666Y-53102438D02*
X137221428Y-53054819D01*
X137221428Y-53054819D02*
X137030952Y-53054819D01*
X137030952Y-53054819D02*
X136935714Y-53102438D01*
X136935714Y-53102438D02*
X136888095Y-53150057D01*
X136888095Y-53150057D02*
X136840476Y-53245295D01*
X136840476Y-53245295D02*
X136840476Y-53483390D01*
X136840476Y-53483390D02*
X136888095Y-53578628D01*
X136888095Y-53578628D02*
X136935714Y-53626247D01*
X136935714Y-53626247D02*
X137030952Y-53673866D01*
X137030952Y-53673866D02*
X137221428Y-53673866D01*
X137221428Y-53673866D02*
X137316666Y-53626247D01*
X137316666Y-53626247D02*
X137364285Y-53578628D01*
X137364285Y-53578628D02*
X137411904Y-53483390D01*
X137454819Y-48961904D02*
X138264342Y-48961904D01*
X138264342Y-48961904D02*
X138359580Y-48914285D01*
X138359580Y-48914285D02*
X138407200Y-48866666D01*
X138407200Y-48866666D02*
X138454819Y-48771428D01*
X138454819Y-48771428D02*
X138454819Y-48580952D01*
X138454819Y-48580952D02*
X138407200Y-48485714D01*
X138407200Y-48485714D02*
X138359580Y-48438095D01*
X138359580Y-48438095D02*
X138264342Y-48390476D01*
X138264342Y-48390476D02*
X137454819Y-48390476D01*
X137788152Y-47485714D02*
X138454819Y-47485714D01*
X137407200Y-47723809D02*
X138121485Y-47961904D01*
X138121485Y-47961904D02*
X138121485Y-47342857D01*
X152233333Y-66719104D02*
X152709523Y-66719104D01*
X152138095Y-67004819D02*
X152471428Y-66004819D01*
X152471428Y-66004819D02*
X152804761Y-67004819D01*
X153138095Y-66481009D02*
X153471428Y-66481009D01*
X153614285Y-67004819D02*
X153138095Y-67004819D01*
X153138095Y-67004819D02*
X153138095Y-66004819D01*
X153138095Y-66004819D02*
X153614285Y-66004819D01*
X154566666Y-67004819D02*
X153995238Y-67004819D01*
X154280952Y-67004819D02*
X154280952Y-66004819D01*
X154280952Y-66004819D02*
X154185714Y-66147676D01*
X154185714Y-66147676D02*
X154090476Y-66242914D01*
X154090476Y-66242914D02*
X153995238Y-66290533D01*
X140095800Y-66555575D02*
X140095800Y-66793670D01*
X139857705Y-66698432D02*
X140095800Y-66793670D01*
X140095800Y-66793670D02*
X140333895Y-66698432D01*
X139952943Y-66984146D02*
X140095800Y-66793670D01*
X140095800Y-66793670D02*
X140238657Y-66984146D01*
X140095799Y-67645936D02*
X140095799Y-67407841D01*
X140333894Y-67503079D02*
X140095799Y-67407841D01*
X140095799Y-67407841D02*
X139857704Y-67503079D01*
X140238656Y-67217365D02*
X140095799Y-67407841D01*
X140095799Y-67407841D02*
X139952942Y-67217365D01*
X124338095Y-40154819D02*
X124338095Y-40964342D01*
X124338095Y-40964342D02*
X124385714Y-41059580D01*
X124385714Y-41059580D02*
X124433333Y-41107200D01*
X124433333Y-41107200D02*
X124528571Y-41154819D01*
X124528571Y-41154819D02*
X124719047Y-41154819D01*
X124719047Y-41154819D02*
X124814285Y-41107200D01*
X124814285Y-41107200D02*
X124861904Y-41059580D01*
X124861904Y-41059580D02*
X124909523Y-40964342D01*
X124909523Y-40964342D02*
X124909523Y-40154819D01*
X125290476Y-40154819D02*
X125909523Y-40154819D01*
X125909523Y-40154819D02*
X125576190Y-40535771D01*
X125576190Y-40535771D02*
X125719047Y-40535771D01*
X125719047Y-40535771D02*
X125814285Y-40583390D01*
X125814285Y-40583390D02*
X125861904Y-40631009D01*
X125861904Y-40631009D02*
X125909523Y-40726247D01*
X125909523Y-40726247D02*
X125909523Y-40964342D01*
X125909523Y-40964342D02*
X125861904Y-41059580D01*
X125861904Y-41059580D02*
X125814285Y-41107200D01*
X125814285Y-41107200D02*
X125719047Y-41154819D01*
X125719047Y-41154819D02*
X125433333Y-41154819D01*
X125433333Y-41154819D02*
X125338095Y-41107200D01*
X125338095Y-41107200D02*
X125290476Y-41059580D01*
D11*
%TO.C,J1*%
X120480399Y-55481600D02*
X121029257Y-55481600D01*
X122705543Y-55481600D02*
X124127763Y-55481600D01*
X126007035Y-55481600D02*
X129319600Y-55481600D01*
X129319600Y-55481600D02*
X129319600Y-45118400D01*
X120480399Y-45118400D02*
X120480399Y-55481600D01*
X121029257Y-45118400D02*
X120480399Y-45118400D01*
X124127763Y-45118400D02*
X122705543Y-45118400D01*
X129319600Y-45118400D02*
X126007035Y-45118400D01*
D12*
X122063399Y-56116600D02*
G75*
G02*
X121301399Y-56116600I-381000J0D01*
G01*
X121301399Y-56116600D02*
G75*
G02*
X122063399Y-56116600I381000J0D01*
G01*
D13*
%TO.C,NX2012SA-1*%
X142640000Y-63440000D02*
X142640000Y-65960000D01*
X144360000Y-63440000D02*
X142640000Y-63440000D01*
X144360000Y-65960000D02*
X144360000Y-63440000D01*
%TO.C,L2*%
X141438748Y-41590000D02*
X141961252Y-41590000D01*
X141438748Y-43810000D02*
X141961252Y-43810000D01*
%TO.C,L1*%
X137090000Y-39561252D02*
X137090000Y-39038748D01*
X139310000Y-39561252D02*
X139310000Y-39038748D01*
D11*
%TO.C,U2*%
X134279200Y-55617300D02*
X134279200Y-56231715D01*
X134279200Y-57568285D02*
X134279200Y-58182700D01*
X136920800Y-56231715D02*
X136920800Y-55617300D01*
X136920800Y-58182700D02*
X136920800Y-57568285D01*
D14*
G36*
X135040499Y-55591900D02*
G01*
X134659499Y-55591900D01*
X134659499Y-55337900D01*
X135040499Y-55337900D01*
X135040499Y-55591900D01*
G37*
D13*
%TO.C,C32*%
X144992164Y-68040000D02*
X145207836Y-68040000D01*
X144992164Y-68760000D02*
X145207836Y-68760000D01*
%TO.C,C6*%
X141407836Y-70340000D02*
X141192164Y-70340000D01*
X141407836Y-71060000D02*
X141192164Y-71060000D01*
D11*
%TO.C,U5*%
X129472774Y-41047500D02*
X129472774Y-41297654D01*
X129472774Y-42702346D02*
X129472774Y-42952500D01*
X129472774Y-42952500D02*
X129763523Y-42952500D01*
X129763523Y-41047500D02*
X129472774Y-41047500D01*
X130035973Y-42952500D02*
X130263649Y-42952500D01*
X130263649Y-41047500D02*
X130035973Y-41047500D01*
X130536099Y-42952500D02*
X130763775Y-42952500D01*
X130763775Y-41047500D02*
X130536099Y-41047500D01*
X131036225Y-42952500D02*
X131326974Y-42952500D01*
X131326974Y-41047500D02*
X131036225Y-41047500D01*
X131326974Y-41297654D02*
X131326974Y-41047500D01*
X131326974Y-42952500D02*
X131326974Y-42702346D01*
D13*
%TO.C,J3*%
X120920000Y-57280000D02*
X122300000Y-57280000D01*
X120920000Y-58660000D02*
X120920000Y-57280000D01*
X120920000Y-59930000D02*
X120920000Y-70200000D01*
X120920000Y-59930000D02*
X123680000Y-59930000D01*
X120920000Y-70200000D02*
X123680000Y-70200000D01*
X123680000Y-59930000D02*
X123680000Y-70200000D01*
%TO.C,C4*%
X128740000Y-64592164D02*
X128740000Y-64807836D01*
X129460000Y-64592164D02*
X129460000Y-64807836D01*
%TO.C,R1*%
X128532379Y-66120000D02*
X128867621Y-66120000D01*
X128532379Y-66880000D02*
X128867621Y-66880000D01*
%TO.C,R5*%
X141220000Y-45332379D02*
X141220000Y-45667621D01*
X141980000Y-45332379D02*
X141980000Y-45667621D01*
%TO.C,R3*%
X135267621Y-44820000D02*
X134932379Y-44820000D01*
X135267621Y-45580000D02*
X134932379Y-45580000D01*
D15*
%TO.C,U4*%
X135775001Y-46199999D02*
X135775001Y-45975001D01*
X135775001Y-50424999D02*
X135775001Y-49799999D01*
X135999999Y-45975001D02*
X135775001Y-45975001D01*
X136400001Y-50424999D02*
X135775001Y-50424999D01*
X140224999Y-45975001D02*
X140000001Y-45975001D01*
X140224999Y-46199999D02*
X140224999Y-45975001D01*
X140224999Y-50424999D02*
X140000001Y-50424999D01*
X140224999Y-50424999D02*
X140224999Y-50200001D01*
D13*
%TO.C,AE1*%
X151090000Y-67240000D02*
X151090000Y-69560000D01*
X151090000Y-69560000D02*
X155000000Y-69560000D01*
X155000000Y-67240000D02*
X151090000Y-67240000D01*
D11*
%TO.C,MCU1*%
X131917000Y-60417000D02*
X131917000Y-60889567D01*
X131917000Y-67310433D02*
X131917000Y-67783000D01*
X131917000Y-67783000D02*
X132389567Y-67783000D01*
X132389567Y-60417000D02*
X131917000Y-60417000D01*
X138810433Y-67783000D02*
X139283000Y-67783000D01*
X139283000Y-60417000D02*
X138810433Y-60417000D01*
X139283000Y-60889567D02*
X139283000Y-60417000D01*
X139283000Y-67783000D02*
X139283000Y-67310433D01*
D14*
G36*
X131485200Y-64040437D02*
G01*
X131231200Y-64040437D01*
X131231200Y-63659437D01*
X131485200Y-63659437D01*
X131485200Y-64040437D01*
G37*
G36*
X134540185Y-68468800D02*
G01*
X134159185Y-68468800D01*
X134159185Y-68214800D01*
X134540185Y-68214800D01*
X134540185Y-68468800D01*
G37*
G36*
X135040311Y-59985200D02*
G01*
X134659311Y-59985200D01*
X134659311Y-59731200D01*
X135040311Y-59731200D01*
X135040311Y-59985200D01*
G37*
G36*
X139968800Y-62540059D02*
G01*
X139714800Y-62540059D01*
X139714800Y-62159059D01*
X139968800Y-62159059D01*
X139968800Y-62540059D01*
G37*
D13*
%TO.C,J2*%
X128745000Y-39180000D02*
X128745000Y-37800000D01*
X130125000Y-39180000D02*
X128745000Y-39180000D01*
X131395000Y-36420000D02*
X134045000Y-36420000D01*
X131395000Y-39180000D02*
X131395000Y-36420000D01*
X131395000Y-39180000D02*
X134045000Y-39180000D01*
X134045000Y-39180000D02*
X134045000Y-36420000D01*
%TO.C,R4*%
X143232379Y-46320000D02*
X143567621Y-46320000D01*
X143232379Y-47080000D02*
X143567621Y-47080000D01*
%TO.C,R2*%
X134120000Y-43467621D02*
X134120000Y-43132379D01*
X134880000Y-43467621D02*
X134880000Y-43132379D01*
%TO.C,CX2016FB-1*%
X136790000Y-71190000D02*
X136790000Y-74010000D01*
X139210000Y-71190000D02*
X136790000Y-71190000D01*
D11*
%TO.C,U3*%
X123595074Y-38000000D02*
G75*
G02*
X123391874Y-38000000I-101600J0D01*
G01*
X123391874Y-38000000D02*
G75*
G02*
X123595074Y-38000000I101600J0D01*
G01*
%TD*%
M02*
